<?xml version="1.0" encoding="UTF-8"?>
<svg id="Layer_2" data-name="Layer 2" xmlns="http://www.w3.org/2000/svg" viewBox="0 0 76.13 23.54">
  <defs>
    <style>
      .cls-1 {
        stroke-width: 0px;
      }
    </style>
  </defs>
  <g id="Layer_1-2" data-name="Layer 1">
    <g>
      <g>
        <polygon class="cls-1" points="18.06 10.61 18.06 7.23 10.19 2.69 2.33 7.23 2.33 16.31 10.19 20.85 18.06 16.31 18.06 15.26 20.38 15.26 20.38 17.65 10.19 23.54 0 17.65 0 5.88 10.19 0 20.38 5.88 20.38 12.93 15.73 12.93 15.73 10.61 18.06 10.61"/>
        <polygon class="cls-1" points="13.4 10.61 13.4 9.92 10.19 8.06 6.98 9.92 6.98 13.62 10.19 15.48 10.57 15.26 13.4 13.62 13.4 12.93 15.73 12.93 15.73 14.97 15.22 15.26 10.19 18.16 4.65 14.97 4.65 8.57 10.19 5.37 15.73 8.57 15.73 10.61 13.4 10.61"/>
      </g>
      <g>
        <g>
          <path class="cls-1" d="M32.59,6.71v-2.28c-.18-.18-.35-.34-.49-.48-.26-.27-.57-.57-.9-.9h-3.09c-.18.17-.34.34-.48.48l-.9.9v8.37c.33.33.63.64.9.9l.49.49h3.08c.33-.33.63-.63.9-.9l.49-.49v-2.34h-1.86v1.87h-2.15v-7.42h2.15v1.8h1.86Z"/>
          <path class="cls-1" d="M39.51,3.05h-2.99l-1.98,11.14h1.81l.47-2.68.04-.2h2.31l.04.2.48,2.68h1.8l-1.98-11.14ZM37.2,9.43l.05-.28.53-3.18.24-1.44.24,1.44.52,3.18.05.28h-1.63Z"/>
          <path class="cls-1" d="M48.86,3.97c-.06-.05-.11-.1-.17-.16-.02-.02-.04-.04-.06-.06h0c-.08-.08-.16-.16-.23-.24-.14-.14-.3-.29-.47-.46h-4.47v11.14h1.86v-4.64h2.61l.67-.67.37-.37.35-.36v-3.73c-.17-.17-.32-.32-.46-.46ZM47.45,7.69h-2.15v-2.78h2.15v2.78Z"/>
          <path class="cls-1" d="M51.27,3.05v11.14h1.86V3.05h-1.86Z"/>
          <path class="cls-1" d="M55.09,3.05v1.86h1.62v9.28h1.86V4.91h1.63v-1.86h-5.1Z"/>
          <path class="cls-1" d="M67.12,3.05h-2.99l-1.98,11.14h1.81l.47-2.68.04-.2h2.31l.04.2.48,2.68h1.8l-1.98-11.14ZM64.81,9.43l.05-.28.53-3.18.24-1.44.24,1.44.52,3.18.05.28h-1.63Z"/>
          <path class="cls-1" d="M72.91,12.33V3.05h-1.86v11.14h4.89v-1.86h-3.03Z"/>
        </g>
        <g>
          <path class="cls-1" d="M27.31,20.49v-3.92h1.81v.79h-1.02v.77h.77v.79h-.77v.77h1.02v.79h-1.81Z"/>
          <path class="cls-1" d="M33.56,16.57h.79v3.92h-.83l-.69-1.9v1.9h-.79v-3.92h.82l.7,1.92v-1.92Z"/>
          <path class="cls-1" d="M39.31,17.97h-.79v-.61h-.56v2.34h.56v-.54h-.3v-.79h1.09v2.13h-1.63c-.12-.12-.23-.23-.33-.33-.06-.06-.12-.12-.19-.19v-2.89c.07-.07.13-.13.19-.19.1-.1.2-.21.33-.33h1.11c.07.07.13.13.19.19l.33.33v.89Z"/>
          <path class="cls-1" d="M42.12,20.49v-3.92h.79v3.92h-.79Z"/>
          <path class="cls-1" d="M47.25,16.57h.79v3.92h-.83l-.69-1.9v1.9h-.79v-3.92h.82l.7,1.92v-1.92Z"/>
          <path class="cls-1" d="M50.85,20.49v-3.92h1.81v.79h-1.02v.77h.77v.79h-.77v.77h1.02v.79h-1.81Z"/>
          <path class="cls-1" d="M55.58,20.49v-3.92h1.81v.79h-1.02v.77h.77v.79h-.77v.77h1.02v.79h-1.81Z"/>
          <path class="cls-1" d="M62.45,17.08v1.05l-.4.4c.05.05.1.1.14.15l.25.25v1.56h-.79v-1.57h-.56v1.57h-.79v-3.92h1.63c.12.12.23.23.33.33.06.06.12.12.19.19ZM61.66,18.13v-.77h-.56v.77h.56Z"/>
          <path class="cls-1" d="M65.26,20.49v-3.92h.79v3.92h-.79Z"/>
          <path class="cls-1" d="M70.39,16.57h.79v3.92h-.83l-.69-1.9v1.9h-.79v-3.92h.82l.7,1.92v-1.92Z"/>
          <path class="cls-1" d="M76.13,17.97h-.79v-.61h-.56v2.34h.56v-.54h-.3v-.79h1.09v2.13h-1.63c-.12-.12-.23-.23-.33-.33-.06-.06-.12-.12-.19-.19v-2.89c.07-.07.13-.13.19-.19.1-.1.2-.21.33-.33h1.11c.07.07.13.13.19.19l.33.33v.89Z"/>
        </g>
      </g>
    </g>
  </g>
</svg>