<?xml version="1.0" encoding="UTF-8"?>
<svg id="Layer_2" data-name="Layer 2" xmlns="http://www.w3.org/2000/svg" viewBox="0 0 20.38 23.54">
  <defs>
    <style>
      .cls-1 {
fill: #083344;
        stroke-width: 0px;
      }
    </style>
  </defs>
  <g id="Layer_1-2" data-name="Layer 1">
    <g>
      <polygon class="cls-1" points="18.06 10.61 18.06 7.23 10.19 2.69 2.33 7.23 2.33 16.31 10.19 20.85 18.06 16.31 18.06 15.26 20.38 15.26 20.38 17.65 10.19 23.54 0 17.65 0 5.88 10.19 0 20.38 5.88 20.38 12.93 15.73 12.93 15.73 10.61 18.06 10.61"/>
      <polygon class="cls-1" points="13.4 10.61 13.4 9.92 10.19 8.06 6.98 9.92 6.98 13.62 10.19 15.48 10.57 15.26 13.4 13.62 13.4 12.93 15.73 12.93 15.73 14.97 15.22 15.26 10.19 18.16 4.65 14.97 4.65 8.57 10.19 5.37 15.73 8.57 15.73 10.61 13.4 10.61"/>
    </g>
  </g>
</svg>