<?xml version="1.0" encoding="UTF-8"?>
<svg id="Layer_2" data-name="Layer 2" xmlns="http://www.w3.org/2000/svg" viewBox="0 0 84.34 21.86">
  <defs>
    <style>
      .cls-1 {
        stroke-width: 0px;
      }
    </style>
  </defs>
  <g id="Layer_1-2" data-name="Layer 1">
    <g>
      <g>
        <path class="cls-1" d="M30.62,5.6c-2.64,0-4.07,1.71-4.07,4.5v5.96h2.24v-2.92h3.64v2.92h2.3v-5.96c0-2.79-1.45-4.5-4.11-4.5ZM32.43,10.95h-3.64v-.85c0-1.41.57-2.15,1.82-2.15s1.82.74,1.82,2.15v.85Z"/>
        <path class="cls-1" d="M35.87,5.81v2.35h2.53v7.9h2.29v-7.9h2.54v-2.35h-7.36Z"/>
        <path class="cls-1" d="M47.86,5.81h-3.28v10.25h3.28c3.27,0,4.97-2.06,4.97-5.13s-1.7-5.12-4.97-5.12ZM47.86,13.7h-.98v-5.54h.98c1.86,0,2.64,1.06,2.64,2.77s-.78,2.77-2.64,2.77Z"/>
        <path class="cls-1" d="M58.99,5.6c-2.9,0-4.94,2.26-4.94,5.33s2.04,5.33,4.94,5.33,4.94-2.26,4.94-5.33-2.05-5.33-4.94-5.33ZM58.99,13.91c-1.58,0-2.61-1.26-2.61-2.98s1.03-2.98,2.61-2.98,2.61,1.26,2.61,2.98-1.03,2.98-2.61,2.98Z"/>
        <path class="cls-1" d="M70.06,5.6c-2.9,0-4.94,2.26-4.94,5.33s2.04,5.33,4.94,5.33,4.94-2.26,4.94-5.33-2.05-5.33-4.94-5.33ZM70.06,13.91c-1.58,0-2.62-1.26-2.62-2.98s1.04-2.98,2.62-2.98,2.61,1.26,2.61,2.98-1.04,2.98-2.61,2.98Z"/>
        <path class="cls-1" d="M82.26,12.48c1.19-.55,1.74-1.72,1.74-3.16,0-2.04-1.09-3.51-3.55-3.51h-3.76v10.25h2.3v-3.22h.98l1.65,3.22h2.72l-2.08-3.58ZM80.48,10.49h-1.49v-2.33h1.49c.93,0,1.19.48,1.19,1.16s-.26,1.17-1.19,1.17Z"/>
      </g>
      <g>
        <path class="cls-1" d="M9.13,4.5h-.01l-.26.02c.1-.01.19-.01.28-.01,0,0,0,0,0-.01ZM9.13,4.5h-.01l-.26.02c.1-.01.19-.01.28-.01,0,0,0,0,0-.01Z"/>
        <path class="cls-1" d="M.03,5.4s-.01-.06-.01-.09c0-.06-.01-.11-.01-.17-.02.12,0,.25.03.42-.01-.05-.01-.1-.01-.16ZM9.13,4.5h-.01l-.26.02c.1-.01.19-.01.28-.01,0,0,0,0,0-.01Z"/>
        <path class="cls-1" d="M18.11,1.57c-.22-.2-.45-.39-.71-.55-.97-.64-2.18-1.02-3.49-1.02-1.06,0-2.05.25-2.91.68-.7.35-1.53.35-2.24,0-.85-.43-1.85-.68-2.9-.68-1.33,0-2.56.39-3.54,1.04-.25.17-.48.35-.69.55C.64,2.48.03,3.7.02,5.04c-.01.03-.01.06-.01.1,0,.06.01.11.01.17,0,.03,0,.06.01.09,0,.06,0,.11.01.16.04.17.11.38.19.64.07.22.15.48.23.78.33,1.15.72,2.95.74,5.74.04,4.46.74,8.83,8.63,9.14h.04c7.89-.31,8.68-4.68,8.72-9.14.01-1.38.11-2.51.25-3.44.14-.94.32-1.68.48-2.25.09-.33.17-.6.25-.83.05-.16.09-.3.13-.42,0-.05.01-.1.02-.15,0-.03,0-.06.01-.09,0-.05.01-.1.01-.14.01-.1.01-.2.01-.3v-.1c-.03-1.33-.65-2.54-1.64-3.43ZM17.75,12.71c-.05,5.2-1.31,8.07-7.85,8.31-6.54-.24-7.81-3.11-7.85-8.31-.03-3.13-.51-5.07-.86-6.24,1.43-.88,3.5-1.54,5.9-1.81.12-.02.24-.03.37-.05.17-.02.34-.03.52-.04.04,0,.08,0,.12,0,.22-.02.44-.03.66-.04h.1l.26-.02h.03s0,.01-.01.01c.2-.01.41-.01.61-.01.29,0,.57,0,.85.01.29.01,1.04.07,1.36.09.12.01.24.02.36.04,2.57.29,4.78,1.01,6.24,1.99-.35,1.19-.78,3.09-.81,6.08Z"/>
        <path class="cls-1" d="M9.13,4.5s0,.01,0,.01t.01-.01h-.02Z"/>
        <path class="cls-1" d="M16.42,7.92c-1.3.75-2.29,2.14-2.65,3.81-.06.27-.1.56-.13.85,0,.08,0,.15-.02.23-.33-.59-.7-1.16-1.14-1.68-.44-.56-.97-1.05-1.49-1.51.46.53.9,1.07,1.26,1.67.38.59.67,1.22.92,1.86.21.55.37,1.12.49,1.69.02.09.04.19.05.28.02.1.04.25.06.39.02.19-.03.39-.15.55-.68.93-2.07,1.91-3.41,1.11-.18-.11-.42-.12-.62-.02-1.35.72-2.99-.27-3.7-1.23-.1-.14-.14-.32-.12-.49.02-.1.03-.22.05-.31.01-.08.03-.16.04-.25.12-.58.28-1.16.5-1.72.25-.64.54-1.27.92-1.86.36-.6.8-1.14,1.26-1.67-.52.46-1.04.95-1.49,1.51-.41.48-.76,1.02-1.08,1.58,0-.05-.01-.09-.01-.13-.03-.28-.07-.56-.13-.84-.35-1.64-1.31-3.06-2.65-3.82-.21-.12-.2-.43.02-.54,1.08-.55,3.57-1.68,5.37-1.82.4-.03.9.27,1.31.27.47,0,.86-.3,1.3-.26,1.79.16,4.17,1.27,5.22,1.8.22.12.23.43.02.55Z"/>
        <path class="cls-1" d="M.04,5.56C0,5.39,0,5.26,0,5.14c0,.06.01.11.01.17,0,.03,0,.06.01.09,0,.06,0,.11.01.16Z"/>
      </g>
    </g>
  </g>
</svg>