<?xml version="1.0" encoding="UTF-8"?>
<svg id="Layer_2" data-name="Layer 2" xmlns="http://www.w3.org/2000/svg" viewBox="0 0 85.17 23.54">
  <defs>
    <style>
      .cls-1 {
        fill: #fff;
        stroke-width: 0px;
      }
    </style>
  </defs>
  <g id="Layer_1-2" data-name="Layer 1">
    <g>
      <g>
        <path class="cls-1" d="M27.38,10.94c0-2.79,1.43-4.5,4.07-4.5s4.1,1.71,4.1,4.5v5.95h-2.3v-2.91h-3.63v2.91h-2.24v-5.95ZM33.25,11.79v-.85c0-1.41-.55-2.15-1.82-2.15s-1.82.74-1.82,2.15v.85h3.63Z"/>
        <path class="cls-1" d="M39.22,9h-2.53v-2.35h7.37v2.35h-2.54v7.9h-2.3v-7.9Z"/>
        <path class="cls-1" d="M45.41,6.65h3.28c3.26,0,4.97,2.05,4.97,5.12s-1.7,5.12-4.97,5.12h-3.28V6.65ZM48.69,14.54c1.86,0,2.64-1.07,2.64-2.77s-.78-2.77-2.64-2.77h-.98v5.55h.98Z"/>
        <path class="cls-1" d="M54.88,11.77c0-3.07,2.04-5.33,4.94-5.33s4.94,2.26,4.94,5.33-2.04,5.33-4.94,5.33-4.94-2.26-4.94-5.33ZM62.43,11.77c0-1.72-1.04-2.98-2.61-2.98s-2.61,1.25-2.61,2.98,1.04,2.98,2.61,2.98,2.61-1.25,2.61-2.98Z"/>
        <path class="cls-1" d="M65.94,11.77c0-3.07,2.04-5.33,4.94-5.33s4.94,2.26,4.94,5.33-2.04,5.33-4.94,5.33-4.94-2.26-4.94-5.33ZM73.49,11.77c0-1.72-1.04-2.98-2.61-2.98s-2.61,1.25-2.61,2.98,1.04,2.98,2.61,2.98,2.61-1.25,2.61-2.98Z"/>
        <path class="cls-1" d="M77.52,6.65h3.76c2.46,0,3.55,1.47,3.55,3.51,0,1.44-.55,2.62-1.75,3.17l2.09,3.57h-2.72l-1.65-3.21h-.98v3.21h-2.3V6.65ZM81.31,11.33c.92,0,1.19-.5,1.19-1.18s-.27-1.16-1.19-1.16h-1.49v2.33h1.49Z"/>
      </g>
      <g>
        <path class="cls-1" d="M9.96,5.34h-.26c.09,0,.19,0,.28,0,0,0,0,0-.01,0ZM9.96,5.34h-.26c.09,0,.19,0,.28,0,0,0,0,0-.01,0Z"/>
        <path class="cls-1" d="M10.66,22.7s.02,0,.03,0h0s-.02,0-.03,0ZM9.95,5.34h-.26c.09,0,.19,0,.28,0,0,0,0,0-.01,0h0ZM.85,6.15c0-.07,0-.14,0-.21,0-.02,0-.04,0-.06-.04.15-.02.31.02.52,0-.05-.01-.1-.01-.15,0-.03,0-.06,0-.1Z"/>
        <path class="cls-1" d="M21.41,5.8c-.04-1.52-.72-2.95-1.91-4.02-.26-.23-.53-.44-.81-.63l-.21-.14h0c-1.11-.67-2.39-1.02-3.73-1.02-1.16,0-2.29.26-3.28.77-.23.12-.49.17-.74.17s-.51-.06-.74-.17c-1-.5-2.14-.77-3.29-.77-1.36,0-2.67.36-3.78,1.04h-.01l-.21.14c-.28.19-.54.39-.79.62C.7,2.88.03,4.32,0,5.83c0,.03,0,.07,0,.1,0,.07,0,.15,0,.23,0,.05,0,.1,0,.12,0,.06,0,.12.02.19v.05s.01.04.01.04c.04.2.11.4.19.65l.03.08c.07.21.14.45.23.75.46,1.62.69,3.42.71,5.52.03,3.36.08,9.61,9.44,9.97h.03s.06,0,.11,0c8.27-.33,9.45-4.99,9.5-9.97.02-2.09.25-3.88.69-5.47v-.06c.1-.29.17-.53.24-.74l.02-.05c.05-.15.09-.28.12-.4v-.04s.02-.04.02-.04c.01-.06.02-.13.03-.21v-.07c.01-.06.02-.13.03-.2,0-.12,0-.23,0-.35,0-.05,0-.09,0-.14ZM20.57,6.23s0,.1-.01.14c0,.03,0,.06,0,.09,0,.05-.01.1-.02.15-.03.12-.08.26-.13.42-.07.23-.16.5-.25.82h0c-.32,1.15-.7,2.94-.72,5.69-.04,4.46-.84,8.83-8.73,9.14h0s-.02,0-.03,0c-7.89-.31-8.59-4.68-8.63-9.14-.03-2.79-.42-4.59-.74-5.74-.08-.3-.17-.56-.24-.78-.08-.26-.15-.47-.19-.65-.04-.2-.06-.36-.02-.52.01-1.34.62-2.56,1.61-3.45.22-.2.44-.38.69-.54h0c.98-.65,2.21-1.04,3.54-1.04,1.06,0,2.05.25,2.91.68.7.35,1.53.35,2.24,0,.86-.43,1.85-.68,2.91-.68,1.31,0,2.52.38,3.49,1.02h0c.25.17.49.35.71.55.99.89,1.6,2.1,1.63,3.43,0,.03,0,.06,0,.1,0,.1,0,.2,0,.3Z"/>
        <path class="cls-1" d="M13.14,5.48c-.12-.01-.24-.03-.35-.04-.32-.02-1.07-.08-1.36-.09-.28-.01-.57-.02-.86-.02-.2,0-.4,0-.6.01,0,0,0,0,0,0h-.02s.01,0,.01,0c-.09,0-.19,0-.28,0h-.1c-.22.01-.44.03-.66.04-.04,0-.08,0-.12,0-.18.01-.35.03-.52.05-.13.01-.25.03-.37.04-2.39.28-4.46.93-5.89,1.81.35,1.17.82,3.11.85,6.24.04,5.2,1.31,8.06,7.85,8.31,6.54-.24,7.81-3.11,7.85-8.31.03-2.99.46-4.89.81-6.08-1.46-.98-3.66-1.7-6.24-1.99ZM17.25,8.75c-1.3.75-2.29,2.15-2.65,3.81-.06.28-.1.56-.13.85,0,.08-.01.15-.02.23-.33-.59-.71-1.17-1.14-1.68-.44-.56-.97-1.05-1.49-1.52.46.53.91,1.08,1.27,1.68.38.59.67,1.22.92,1.86.21.55.37,1.12.49,1.69.02.09.04.19.06.28.02.1.04.25.05.38.02.2-.03.4-.15.56-.68.92-2.07,1.9-3.41,1.11-.19-.11-.43-.12-.62-.02-1.36.71-2.99-.28-3.7-1.24-.1-.14-.15-.31-.12-.48.02-.11.03-.23.05-.31.01-.08.03-.17.05-.25.12-.58.27-1.16.49-1.72.25-.64.54-1.27.92-1.86.36-.6.8-1.14,1.27-1.68-.53.47-1.05.95-1.49,1.52-.41.48-.77,1.02-1.08,1.58,0-.04,0-.09,0-.13-.03-.28-.07-.56-.13-.84-.35-1.64-1.32-3.06-2.65-3.82-.21-.12-.2-.43.02-.54,1.08-.55,3.57-1.68,5.37-1.82.4-.03.9.27,1.31.27.47,0,.85-.29,1.3-.25,1.78.16,4.17,1.27,5.22,1.8.22.11.23.42.02.54Z"/>
        <path class="cls-1" d="M.87,6.39c-.04-.2-.06-.36-.02-.52,0,.02,0,.04,0,.06,0,.07,0,.14,0,.21,0,.03,0,.06,0,.1,0,.05,0,.1.01.15Z"/>
        <path class="cls-1" d="M10.69,22.69h0s-.02,0-.03,0c.01,0,.02,0,.03,0Z"/>
      </g>
    </g>
  </g>
</svg>