<?xml version="1.0" encoding="UTF-8"?>
<svg id="Layer_2" data-name="Layer 2" xmlns="http://www.w3.org/2000/svg" viewBox="0 0 21.23 23.54">
  <defs>
    <style>
      .cls-1 {
        fill: #fff;
        stroke-width: 0px;
      }
    </style>
  </defs>
  <g id="Layer_1-2" data-name="Layer 1">
    <g>
      <g>
        <path class="cls-1" d="M3.76,22.84c-1.06.68-2.65.89-3.76.51l.58-2.23c.22.11.46.18.69.18.47,0,.96-.14,1.29-.3.22.55.61,1.33,1.2,1.84Z"/>
        <path class="cls-1" d="M11.05,12.65c-.18,1.86-.64,5.13-1.13,6.53-1.09,3.1-2.52,3.74-3.52,3.74-.41,0-.89-.11-1.38-.44-.13-.09-.26-.19-.39-.31-.43-.39-.86-.98-1.27-1.82-.07-.15-.15-.31-.22-.48-.09-.21-.18-.44-.26-.68-.52-1.49-.89-3.33-1.06-5.32-.03-.34-.05-.68-.07-1.02h0c0-.17-.02-.34-.02-.52,0-.02,0-.03,0-.05,0-.07,0-.13,0-.2,0-.07,0-.13,0-.2,0-.07,0-.15,0-.22,0-.08,0-.15,0-.23,0-.11,0-.21,0-.32,0-.07,0-.13,0-.2,0-.13,0-.26,0-.39,0-2.57.21-5,.58-6.84C2.58,2.11,3.17.05,4.62.05s2.04,2.07,2.35,3.62c.37,1.84.58,4.27.58,6.84v.2c0,.07,0,.13,0,.2,0,.07,0,.13,0,.2,0,.07,0,.13,0,.2,0,.13,0,.27,0,.4,0,.13,0,.26-.01.39,0,.17-.01.35-.02.52,0,.13-.01.26-.02.39h0c0,.05,0,.1,0,.15,0,.06,0,.12-.01.19,0,.1-.01.2-.02.3,0,0,0,.01,0,.02,0,.07-.01.13-.02.2,0,.06-.01.13-.02.19,0,.06-.01.12-.02.18h0c0,.12-.02.22-.03.33-.02.14-.03.27-.05.41-.02.12-.03.24-.05.36,0,.06-.02.12-.03.18,0,.06-.02.12-.03.18,0,.06-.02.12-.03.18-.02.12-.04.23-.06.35,0,.06-.02.11-.03.17-.01.08-.03.16-.05.24-.02.08-.03.15-.05.23-.02.1-.04.19-.06.29-.01.07-.03.14-.04.2-.01.06-.03.11-.04.17-.02.08-.04.15-.06.23-.01.04-.02.09-.03.13-.03.13-.07.25-.1.38-.01.05-.03.11-.05.16-.03.11-.06.22-.1.32-.03.11-.07.21-.1.31-.75-.6-1.35-3.14-1.35-3.14,0-.04.02-.08.02-.13.01-.08.03-.16.04-.24,0-.04.01-.07.02-.11.01-.08.03-.15.04-.23.01-.08.02-.16.03-.24.01-.09.02-.18.03-.27,0-.03,0-.07.01-.1,0-.07.02-.13.02-.2,0-.07.01-.13.02-.2,0-.03,0-.07.01-.11,0-.07.01-.14.02-.21,0-.05,0-.11.01-.17,0-.05,0-.1.01-.15,0-.06,0-.12.01-.18,0-.05,0-.11.01-.16,0-.05,0-.11,0-.16.05-.77.07-1.6.07-2.51,0-3.8-.46-6.42-.86-7.61-.39,1.19-.86,3.81-.86,7.61,0,.1,0,.21,0,.31v.13s0,.09,0,.13c0,.19,0,.37.01.55,0,.27.02.54.03.8,0,.06,0,.12,0,.18,0,.07,0,.14,0,.21,0,.18.02.35.03.51h0c.01.18.03.35.04.52.11,1.14.28,2.15.48,3.01.07.32.16.62.24.9.2.65.41,1.18.63,1.62.22.43.44.75.64.96.14.14.28.24.4.27.04.01.08.02.11.02.75,0,2.13-2.44,2.52-6.98,0-.09.14-1.41.17-1.49l1.97.48Z"/>
      </g>
      <path class="cls-1" d="M21.23,21.12l-.58,2.23s-.07-.02-.1-.03c-.32-.12-.62-.29-.89-.5-.8-.48-1.32-1.34-1.59-1.93,0-.01,0-.02-.01-.03-.01-.03-.03-.06-.04-.09,0,0,0,0,0,0-.05-.12-.1-.24-.14-.36-.01-.04-.03-.08-.04-.12,0-.02,0-.02,0-.02-.08-.23-.16-.48-.24-.74-.09-.3-.16-.61-.24-.93-.19-.86-.33-1.81-.42-2.81,0,0,0-.02,0-.03-.02-.18-.03-.36-.04-.55,0-.06,0-.11-.01-.17,0-.08,0-.17-.01-.25,0,0,0-.02,0-.02,0-.07,0-.14,0-.21,0-.05,0-.11,0-.16,0-.13,0-.27-.01-.4,0-.05,0-.1,0-.15,0-.07,0-.13,0-.2,0,0,0,0,0-.01,0-.08,0-.16,0-.24,0-.12-.01-.31-.02-.43v-.04c0-.06-.02-.13-.02-.19,0-.04,0-.08-.01-.13,0,0,0-.01,0-.02,0-.06-.01-.12-.02-.18,0-.06-.01-.11-.02-.17,0-.05-.01-.1-.02-.14,0,0,0-.02,0-.03,0,0,0,0,0-.01,0-.05-.02-.1-.03-.16,0-.05-.02-.11-.03-.16,0-.04-.01-.07-.02-.11,0-.01,0-.02,0-.03,0-.02,0-.04-.01-.05,0-.04-.02-.08-.03-.12-.01-.05-.02-.1-.04-.15-.17-.65-.35-1.03-.5-1.24-.1-.14-.3-.16-.42-.03-.17.19-.4.55-.63,1.16-.41,1.06-.68,2.46-.77,3.94-.09,1.49.03,2.92.31,4.02.19.75.41,1.15.56,1.33.07.09.2.1.28.02.03-.02.05-.05.08-.09.17-.19.39-.55.63-1.16.06-.15.12-.32.17-.49.04-.11.07-.23.1-.35.01-.04.02-.09.04-.13,0-.02.01-.04.02-.07,0-.01,0-.03,0-.04,0-.02,0-.03.01-.05,0-.01,0-.03.01-.04.14,1.03.41,2.33.9,3.38-.01.02-.03.04-.04.06-.02.04-.05.07-.07.11-.01.02-.02.04-.04.06-.01.02-.03.04-.04.06-.02.03-.05.07-.08.1-.03.04-.07.08-.1.12-.01.02-.03.03-.04.05-.03.04-.06.07-.1.11-.03.03-.05.05-.08.08-.03.03-.05.05-.08.08h0s-.03.02-.04.04c-.01.01-.03.02-.04.03-.02.01-.03.03-.05.04-.03.03-.06.05-.09.07-.02.01-.03.03-.05.04-.02.01-.03.02-.05.03-.01.01-.03.02-.05.03-.02.01-.04.02-.05.03-.01,0-.02.02-.04.02,0,0-.01,0-.02.01-.02.01-.03.02-.05.03-.02.01-.04.02-.06.03-.02,0-.03.02-.05.02-.02,0-.04.02-.06.03-.05.02-.09.04-.14.05-.02,0-.03.01-.05.02-.02,0-.04.01-.06.02-.02,0-.04.01-.07.02-.02,0-.04,0-.06.01-.03,0-.06.01-.09.02-.02,0-.04,0-.07.01h0s-.05,0-.07,0c0,0,0,0,0,0-.01,0-.03,0-.04,0-.02,0-.03,0-.05,0-.03,0-.06,0-.09,0h-.05s-.04,0-.06,0c-.63-.04-1.78-.47-2.47-2.82-.41-1.4-.58-3.21-.47-5.1.11-1.89.48-3.66,1.05-4.99.96-2.24,2.15-2.5,2.77-2.46.01,0,.02,0,.03,0,.01,0,.02,0,.03,0,.02,0,.05,0,.07,0,.02,0,.05,0,.08.01.01,0,.02,0,.04,0,.01,0,.02,0,.04,0,.02,0,.04,0,.05.01.02,0,.05.01.07.02.01,0,.03,0,.04.01.01,0,.03,0,.04.02,0,0,.01,0,.02,0,0,0,.02,0,.02,0,.01,0,.03.01.04.02.02,0,.03.01.05.02.02,0,.03.02.05.03,0,0,0,0,0,0,0,0,0,0,0,0,.02,0,.04.02.05.03.05.03.1.05.15.09.03.02.05.03.08.05.02.01.04.03.06.04,0,0,0,0,.01.01,0,0,0,0,0,0,0,0,0,0,.02.01.02.02.04.04.07.05.4.34.82.89,1.16,1.81.06.17.12.34.18.53,0,0,0,.01,0,.02.03.1.06.21.09.31.03.1.05.21.07.31.01.06.03.11.04.17.02.07.03.14.04.22,0,.05.02.09.03.14.01.07.02.13.03.2,0,.05.02.1.02.16,0,.01,0,.03,0,.04,0,.04.01.08.02.12.02.13.03.25.05.38,0,0,0,.01,0,.02,0,.07.02.15.02.22,0,.04,0,.09.01.13,0,.13.02.26.03.39h0c0,.09,0,.16.01.25,0,.01,0,.03,0,.04,0,.06,0,.12,0,.17,0,0,0,.02,0,.03,0,0,0,.02,0,.03,0,0,0,.02,0,.02,0,.16,0,.33,0,.5v.04c0,.07,0,.15,0,.22h0c0,.06,0,.1,0,.14,0,.04,0,.09,0,.13,0,.12.01.23.02.35,0,.06,0,.11.01.17,0,.06,0,.13.02.19,0,.06.01.12.02.18,0,.1.02.19.03.29,0,.05,0,.1.02.15,0,.08.02.16.03.23,0,.04,0,.08.01.12,0,.06.02.12.02.17,0,0,0,.01,0,.02.01.08.02.16.03.24.01.07.02.13.03.19,0,.07.02.13.03.2,0,.05.02.1.03.15,0,.03,0,.06.01.08,0,0,0,.02,0,.03.02.08.03.16.05.24,0,0,0,.02,0,.03,0,.04.01.07.02.11,0,.04.02.08.03.13.01.06.03.12.04.17,0,0,0,.01,0,.02.01.05.02.09.03.14,0,.01,0,.02,0,.04,0,.03.02.07.02.09.41,1.3.96,2.03,1.35,2.4.04.04.08.07.11.1,0,0,.01-.02.02-.02.09.05.19.11.28.15Z"/>
      <g>
        <path class="cls-1" d="M19.25,9.66c-.03-.08-.06-.17-.09-.25-.37-.99-.86-1.75-1.47-2.26l-.03-.02s-.05-.04-.07-.06l-.06-.05h0s-.05-.04-.07-.05c-.02-.01-.04-.03-.06-.04v-.03s-.14-.07-.14-.07l-.19-.13-.13-.06c0-.06-.02-.13-.03-.19,0-.06-.02-.12-.03-.18,0-.04-.01-.07-.02-.11,0-.04-.01-.08-.02-.12,0-.03-.01-.07-.02-.1,0-.04-.02-.09-.03-.13-.02-.08-.03-.16-.05-.23,0,0,0-.02,0-.02-.02-.08-.04-.16-.05-.24,0-.03-.01-.06-.02-.09,0-.03-.01-.06-.02-.09-.01-.06-.03-.12-.04-.17,0-.04-.02-.08-.03-.11-.02-.07-.04-.14-.06-.22,0-.01,0-.03-.01-.04-.01-.05-.03-.1-.05-.15-.03-.11-.07-.21-.1-.31-.01-.03-.02-.07-.03-.1-.01-.03-.02-.06-.03-.09-.01-.03-.02-.06-.03-.09-.01-.03-.02-.06-.03-.09-.02-.06-.05-.11-.07-.17,0,0,0,0,0,0-.02-.05-.05-.1-.07-.15,0-.01-.01-.03-.02-.04,0-.01-.01-.03-.02-.04-.02-.05-.05-.1-.07-.14-.01-.02-.02-.05-.03-.07-.02-.05-.05-.09-.07-.13-.01-.02-.02-.04-.03-.06-.02-.03-.04-.07-.06-.09-.01-.02-.02-.04-.04-.06,0-.01-.02-.03-.03-.04,0-.01-.02-.03-.03-.04,0-.01-.02-.03-.03-.04,0-.01-.02-.02-.03-.04-.01-.02-.02-.03-.04-.05-.01-.01-.02-.03-.03-.04h-.01s-.02-.03-.03-.04-.02-.02-.03-.03c0,0-.02-.02-.02-.02-.01-.01-.03-.03-.04-.04-.01,0-.02-.02-.03-.03-.01,0-.02-.02-.03-.03-.04-.03-.08-.06-.12-.08,0,0-.02,0-.03-.01-.05-.02-.09-.03-.13-.03-.44-.03-1.14.76-1.78,2.33-.08.19-.14.31-.23.54-.58-.19-.95-.33-1.85-.67C12.62.45,14.19-.06,15.19,0c1,.07,2.39.82,3.3,3.98.46,1.59.72,3.56.76,5.67Z"/>
        <path class="cls-1" d="M18.06,20.86s0,0,0,0c0-.02-.02-.04-.03-.06,0,0,0-.02,0-.02.01.03.03.06.04.09Z"/>
      </g>
      <path class="cls-1" d="M11.25,7.34s.63-.91,1.41-.34c.71.52.73,1.72-2.48,3.55-1.32-3.51-.32-4.15.23-4.14.62.02.84.93.84.93Z"/>
    </g>
  </g>
</svg>