<?xml version="1.0" encoding="UTF-8"?>
<svg id="Layer_2" data-name="Layer 2" xmlns="http://www.w3.org/2000/svg" viewBox="0 0 71.13 23.54">
  <defs>
    <style>
      .cls-1 {
        fill: #fff;
        stroke-width: 0px;
      }
    </style>
  </defs>
  <g id="Layer_1-2" data-name="Layer 1">
    <g>
      <g>
        <g>
          <path class="cls-1" d="M3.76,22.84c-1.06.68-2.65.89-3.76.51l.58-2.23c.22.11.46.18.69.18.47,0,.96-.14,1.29-.3.22.55.61,1.33,1.2,1.84Z"/>
          <path class="cls-1" d="M11.05,12.65c-.18,1.86-.64,5.13-1.13,6.53-1.09,3.1-2.52,3.74-3.52,3.74-.41,0-.89-.11-1.38-.44-.13-.09-.26-.19-.39-.31-.43-.39-.86-.98-1.27-1.82-.07-.15-.15-.31-.22-.48-.09-.21-.18-.44-.26-.68-.52-1.49-.89-3.33-1.06-5.32-.03-.34-.05-.68-.07-1.02h0c0-.17-.02-.34-.02-.52,0-.02,0-.03,0-.05,0-.07,0-.13,0-.2,0-.07,0-.13,0-.2,0-.07,0-.15,0-.22,0-.08,0-.15,0-.23,0-.11,0-.21,0-.32,0-.07,0-.13,0-.2,0-.13,0-.26,0-.39,0-2.57.21-5,.58-6.84C2.58,2.11,3.17.05,4.62.05s2.04,2.07,2.35,3.62c.37,1.84.58,4.27.58,6.84v.2c0,.07,0,.13,0,.2,0,.07,0,.13,0,.2,0,.07,0,.13,0,.2,0,.13,0,.27,0,.4,0,.13,0,.26-.01.39,0,.17-.01.35-.02.52,0,.13-.01.26-.02.39h0c0,.05,0,.1,0,.15,0,.06,0,.12-.01.19,0,.1-.01.2-.02.3,0,0,0,.01,0,.02,0,.07-.01.13-.02.2,0,.06-.01.13-.02.19,0,.06-.01.12-.02.18h0c0,.12-.02.22-.03.33-.02.14-.03.27-.05.41-.02.12-.03.24-.05.36,0,.06-.02.12-.03.18,0,.06-.02.12-.03.18,0,.06-.02.12-.03.18-.02.12-.04.23-.06.35,0,.06-.02.11-.03.17-.01.08-.03.16-.05.24-.02.08-.03.15-.05.23-.02.1-.04.19-.06.29-.01.07-.03.14-.04.2-.01.06-.03.11-.04.17-.02.08-.04.15-.06.23-.01.04-.02.09-.03.13-.03.13-.07.25-.1.38-.01.05-.03.11-.05.16-.03.11-.06.22-.1.32-.03.11-.07.21-.1.31-.75-.6-1.35-3.14-1.35-3.14,0-.04.02-.08.02-.13.01-.08.03-.16.04-.24,0-.04.01-.07.02-.11.01-.08.03-.15.04-.23.01-.08.02-.16.03-.24.01-.09.02-.18.03-.27,0-.03,0-.07.01-.1,0-.07.02-.13.02-.2,0-.07.01-.13.02-.2,0-.03,0-.07.01-.11,0-.07.01-.14.02-.21,0-.05,0-.11.01-.17,0-.05,0-.1.01-.15,0-.06,0-.12.01-.18,0-.05,0-.11.01-.16,0-.05,0-.11,0-.16.05-.77.07-1.6.07-2.51,0-3.8-.46-6.42-.86-7.61-.39,1.19-.86,3.81-.86,7.61,0,.1,0,.21,0,.31v.13s0,.09,0,.13c0,.19,0,.37.01.55,0,.27.02.54.03.8,0,.06,0,.12,0,.18,0,.07,0,.14,0,.21,0,.18.02.35.03.51h0c.01.18.03.35.04.52.11,1.14.28,2.15.48,3.01.07.32.16.62.24.9.2.65.41,1.18.63,1.62.22.43.44.75.64.96.14.14.28.24.4.27.04.01.08.02.11.02.75,0,2.13-2.44,2.52-6.98,0-.09.14-1.41.17-1.49l1.97.48Z"/>
        </g>
        <path class="cls-1" d="M21.23,21.12l-.58,2.23s-.07-.02-.1-.03c-.32-.12-.62-.29-.89-.5-.8-.48-1.32-1.34-1.59-1.93,0-.01,0-.02-.01-.03-.01-.03-.03-.06-.04-.09,0,0,0,0,0,0-.05-.12-.1-.24-.14-.36-.01-.04-.03-.08-.04-.12,0-.02,0-.02,0-.02-.08-.23-.16-.48-.24-.74-.09-.3-.16-.61-.24-.93-.19-.86-.33-1.81-.42-2.81,0,0,0-.02,0-.03-.02-.18-.03-.36-.04-.55,0-.06,0-.11-.01-.17,0-.08,0-.17-.01-.25,0,0,0-.02,0-.02,0-.07,0-.14,0-.21,0-.05,0-.11,0-.16,0-.13,0-.27-.01-.4,0-.05,0-.1,0-.15,0-.07,0-.13,0-.2,0,0,0,0,0-.01,0-.08,0-.16,0-.24,0-.12-.01-.31-.02-.43v-.04c0-.06-.02-.13-.02-.19,0-.04,0-.08-.01-.13,0,0,0-.01,0-.02,0-.06-.01-.12-.02-.18,0-.06-.01-.11-.02-.17,0-.05-.01-.1-.02-.14,0,0,0-.02,0-.03,0,0,0,0,0-.01,0-.05-.02-.1-.03-.16,0-.05-.02-.11-.03-.16,0-.04-.01-.07-.02-.11,0-.01,0-.02,0-.03,0-.02,0-.04-.01-.05,0-.04-.02-.08-.03-.12-.01-.05-.02-.1-.04-.15-.17-.65-.35-1.03-.5-1.24-.1-.14-.3-.16-.42-.03-.17.19-.4.55-.63,1.16-.41,1.06-.68,2.46-.77,3.94-.09,1.49.03,2.92.31,4.02.19.75.41,1.15.56,1.33.07.09.2.1.28.02.03-.02.05-.05.08-.09.17-.19.39-.55.63-1.16.06-.15.12-.32.17-.49.04-.11.07-.23.1-.35.01-.04.02-.09.04-.13,0-.02.01-.04.02-.07,0-.01,0-.03,0-.04,0-.02,0-.03.01-.05,0-.01,0-.03.01-.04.14,1.03.41,2.33.9,3.38-.01.02-.03.04-.04.06-.02.04-.05.07-.07.11-.01.02-.02.04-.04.06-.01.02-.03.04-.04.06-.02.03-.05.07-.08.1-.03.04-.07.08-.1.12-.01.02-.03.03-.04.05-.03.04-.06.07-.1.11-.03.03-.05.05-.08.08-.03.03-.05.05-.08.08h0s-.03.02-.04.04c-.01.01-.03.02-.04.03-.02.01-.03.03-.05.04-.03.03-.06.05-.09.07-.02.01-.03.03-.05.04-.02.01-.03.02-.05.03-.01.01-.03.02-.05.03-.02.01-.04.02-.05.03-.01,0-.02.02-.04.02,0,0-.01,0-.02.01-.02.01-.03.02-.05.03-.02.01-.04.02-.06.03-.02,0-.03.02-.05.02-.02,0-.04.02-.06.03-.05.02-.09.04-.14.05-.02,0-.03.01-.05.02-.02,0-.04.01-.06.02-.02,0-.04.01-.07.02-.02,0-.04,0-.06.01-.03,0-.06.01-.09.02-.02,0-.04,0-.07.01h0s-.05,0-.07,0c0,0,0,0,0,0-.01,0-.03,0-.04,0-.02,0-.03,0-.05,0-.03,0-.06,0-.09,0h-.05s-.04,0-.06,0c-.63-.04-1.78-.47-2.47-2.82-.41-1.4-.58-3.21-.47-5.1.11-1.89.48-3.66,1.05-4.99.96-2.24,2.15-2.5,2.77-2.46.01,0,.02,0,.03,0,.01,0,.02,0,.03,0,.02,0,.05,0,.07,0,.02,0,.05,0,.08.01.01,0,.02,0,.04,0,.01,0,.02,0,.04,0,.02,0,.04,0,.05.01.02,0,.05.01.07.02.01,0,.03,0,.04.01.01,0,.03,0,.04.02,0,0,.01,0,.02,0,0,0,.02,0,.02,0,.01,0,.03.01.04.02.02,0,.03.01.05.02.02,0,.03.02.05.03,0,0,0,0,0,0,0,0,0,0,0,0,.02,0,.04.02.05.03.05.03.1.05.15.09.03.02.05.03.08.05.02.01.04.03.06.04,0,0,0,0,.01.01,0,0,0,0,0,0,0,0,0,0,.02.01.02.02.04.04.07.05.4.34.82.89,1.16,1.81.06.17.12.34.18.53,0,0,0,.01,0,.02.03.1.06.21.09.31.03.1.05.21.07.31.01.06.03.11.04.17.02.07.03.14.04.22,0,.05.02.09.03.14.01.07.02.13.03.2,0,.05.02.1.02.16,0,.01,0,.03,0,.04,0,.04.01.08.02.12.02.13.03.25.05.38,0,0,0,.01,0,.02,0,.07.02.15.02.22,0,.04,0,.09.01.13,0,.13.02.26.03.39h0c0,.09,0,.16.01.25,0,.01,0,.03,0,.04,0,.06,0,.12,0,.17,0,0,0,.02,0,.03,0,0,0,.02,0,.03,0,0,0,.02,0,.02,0,.16,0,.33,0,.5v.04c0,.07,0,.15,0,.22h0c0,.06,0,.1,0,.14,0,.04,0,.09,0,.13,0,.12.01.23.02.35,0,.06,0,.11.01.17,0,.06,0,.13.02.19,0,.06.01.12.02.18,0,.1.02.19.03.29,0,.05,0,.1.02.15,0,.08.02.16.03.23,0,.04,0,.08.01.12,0,.06.02.12.02.17,0,0,0,.01,0,.02.01.08.02.16.03.24.01.07.02.13.03.19,0,.07.02.13.03.2,0,.05.02.1.03.15,0,.03,0,.06.01.08,0,0,0,.02,0,.03.02.08.03.16.05.24,0,0,0,.02,0,.03,0,.04.01.07.02.11,0,.04.02.08.03.13.01.06.03.12.04.17,0,0,0,.01,0,.02.01.05.02.09.03.14,0,.01,0,.02,0,.04,0,.03.02.07.02.09.41,1.3.96,2.03,1.35,2.4.04.04.08.07.11.1,0,0,.01-.02.02-.02.09.05.19.11.28.15Z"/>
        <g>
          <path class="cls-1" d="M19.25,9.66c-.03-.08-.06-.17-.09-.25-.37-.99-.86-1.75-1.47-2.26l-.03-.02s-.05-.04-.07-.06l-.06-.05h0s-.05-.04-.07-.05c-.02-.01-.04-.03-.06-.04v-.03s-.14-.07-.14-.07l-.19-.13-.13-.06c0-.06-.02-.13-.03-.19,0-.06-.02-.12-.03-.18,0-.04-.01-.07-.02-.11,0-.04-.01-.08-.02-.12,0-.03-.01-.07-.02-.1,0-.04-.02-.09-.03-.13-.02-.08-.03-.16-.05-.23,0,0,0-.02,0-.02-.02-.08-.04-.16-.05-.24,0-.03-.01-.06-.02-.09,0-.03-.01-.06-.02-.09-.01-.06-.03-.12-.04-.17,0-.04-.02-.08-.03-.11-.02-.07-.04-.14-.06-.22,0-.01,0-.03-.01-.04-.01-.05-.03-.1-.05-.15-.03-.11-.07-.21-.1-.31-.01-.03-.02-.07-.03-.1-.01-.03-.02-.06-.03-.09-.01-.03-.02-.06-.03-.09-.01-.03-.02-.06-.03-.09-.02-.06-.05-.11-.07-.17,0,0,0,0,0,0-.02-.05-.05-.1-.07-.15,0-.01-.01-.03-.02-.04,0-.01-.01-.03-.02-.04-.02-.05-.05-.1-.07-.14-.01-.02-.02-.05-.03-.07-.02-.05-.05-.09-.07-.13-.01-.02-.02-.04-.03-.06-.02-.03-.04-.07-.06-.09-.01-.02-.02-.04-.04-.06,0-.01-.02-.03-.03-.04,0-.01-.02-.03-.03-.04,0-.01-.02-.03-.03-.04,0-.01-.02-.02-.03-.04-.01-.02-.02-.03-.04-.05-.01-.01-.02-.03-.03-.04h-.01s-.02-.03-.03-.04-.02-.02-.03-.03c0,0-.02-.02-.02-.02-.01-.01-.03-.03-.04-.04-.01,0-.02-.02-.03-.03-.01,0-.02-.02-.03-.03-.04-.03-.08-.06-.12-.08,0,0-.02,0-.03-.01-.05-.02-.09-.03-.13-.03-.44-.03-1.14.76-1.78,2.33-.08.19-.14.31-.23.54-.58-.19-.95-.33-1.85-.67C12.62.45,14.19-.06,15.19,0c1,.07,2.39.82,3.3,3.98.46,1.59.72,3.56.76,5.67Z"/>
          <path class="cls-1" d="M18.06,20.86s0,0,0,0c0-.02-.02-.04-.03-.06,0,0,0-.02,0-.02.01.03.03.06.04.09Z"/>
        </g>
        <path class="cls-1" d="M11.25,7.34s.63-.91,1.41-.34c.71.52.73,1.72-2.48,3.55-1.32-3.51-.32-4.15.23-4.14.62.02.84.93.84.93Z"/>
      </g>
      <g>
        <path class="cls-1" d="M32.55,16.36c-.11-.28-.29-.52-.56-.73-.28-.22-.66-.39-1.14-.52-.5-.13-1.14-.2-1.9-.2s-1.37.06-1.86.19c-.48.12-.86.29-1.14.49-.27.2-.45.43-.55.69-.08.2-.11.43-.11.66l1.77.18s.04-.1.06-.14c.08-.16.21-.29.38-.4.16-.1.36-.17.61-.23.24-.06.54-.08.9-.08.25,0,.48.02.7.05.22.03.43.09.6.16.19.08.35.19.47.31.14.15.21.33.21.54,0,.11-.04.39-.47.5-.18.05-.42.08-.71.1-.28.01-.59.03-.94.03-.34,0-.69.03-1.04.07-.34.04-.69.1-1.02.17-.32.07-.6.18-.85.33-.24.14-.42.32-.56.54-.13.21-.2.5-.2.84,0,.27.06.5.18.72s.31.41.54.58c.25.17.57.31.94.4.39.1.84.15,1.35.15.58,0,1.09-.09,1.5-.25.4-.16.71-.39.93-.68l.37-.48.3,1.18h1.42v-4.21c0-.35-.06-.68-.17-.98ZM30.97,19.23c-.01.17-.09.34-.23.5-.12.14-.29.26-.49.36-.19.1-.43.17-.7.23s-.57.09-.92.09c-.31,0-.55-.01-.75-.04-.21-.03-.37-.06-.49-.11-.15-.06-.27-.13-.34-.22-.09-.1-.13-.22-.13-.35,0-.24.13-.44.34-.55.15-.07.34-.12.57-.15.2-.02.43-.04.69-.05.24,0,.48-.03.73-.06.24-.03.55-.07.78-.12.31-.08.38-.08.94-.44v.89Z"/>
        <path class="cls-1" d="M39.94,19.43c-.02.07-.05.15-.09.22-.09.17-.22.32-.38.45-.16.13-.36.23-.59.31-.23.08-.5.12-.8.12s-.57-.02-.83-.07c-.29-.05-.54-.15-.76-.31-.22-.16-.4-.38-.52-.65-.13-.27-.19-.61-.19-1.04s.06-.75.19-1.02c.13-.27.31-.5.53-.66.22-.16.47-.27.76-.32.26-.05.54-.08.82-.08.6,0,1.05.12,1.36.38.24.19.4.44.47.72l1.95-.12c-.04-.27-.13-.53-.26-.76-.18-.31-.43-.59-.76-.82-.34-.24-.76-.42-1.25-.55-.5-.13-1.08-.2-1.73-.2s-1.25.08-1.76.23c-.5.15-.93.37-1.28.66-.34.28-.61.64-.79,1.06-.18.43-.28.93-.28,1.49s.1,1.07.28,1.49c.18.42.45.77.79,1.05.35.29.78.51,1.28.65.51.15,1.1.23,1.76.23.57,0,1.12-.07,1.62-.2.49-.13.93-.32,1.29-.56.35-.23.64-.51.84-.83.15-.23.24-.48.28-.74l-1.94-.11Z"/>
        <path class="cls-1" d="M47.27,20.31c-.17.01-.33.02-.47.02-.23,0-.43-.02-.59-.06-.31-.07-.54-.21-.66-.41-.11-.18-.17-.4-.17-.64v-2.86h3.14v-1.36h-3.14v-2.06h-2.04v2.06h-1.09v1.36h1.09v2.86c0,1.22.41,1.98,1.24,2.31.4.16.91.24,1.51.24.69,0,1.52-.11,2.48-.32v-1.34c-.52.1-.95.17-1.3.2Z"/>
        <path class="cls-1" d="M61.62,16.96c-.17-.41-.44-.77-.79-1.07-.35-.31-.8-.55-1.35-.71-.55-.17-1.2-.26-1.95-.26s-1.4.09-1.95.26c-.54.17-.99.41-1.34.71-.35.3-.61.66-.78,1.07-.18.41-.26.88-.26,1.38s.09.96.26,1.38c.17.41.43.77.78,1.06.35.3.81.54,1.35.72.55.18,1.2.27,1.95.27s1.4-.09,1.95-.27c.54-.17.99-.42,1.35-.72.35-.3.61-.66.78-1.06.17-.41.26-.88.26-1.38s-.09-.97-.26-1.38ZM59.2,19.93c-.41.32-.97.49-1.66.49s-1.25-.16-1.66-.49c-.43-.34-.64-.87-.64-1.58s.22-1.23.64-1.58c.41-.33.96-.5,1.66-.5s1.25.17,1.66.5c.43.34.64.87.64,1.58s-.22,1.24-.64,1.58Z"/>
        <path class="cls-1" d="M70.4,15.86c-.48-.47-1.29-.71-2.38-.71-.7,0-1.27.09-1.7.27-.42.17-.75.41-.97.71l-.33.44-.41-1.19h-1.61v6.4h2.04v-4.1c.01-.16.06-.31.14-.46.09-.15.22-.29.39-.4.16-.1.35-.17.6-.23.23-.06.51-.08.83-.08.37,0,.69.03.94.09.28.06.5.17.68.31.18.15.31.33.38.54.06.19.1.4.1.64v3.7h2.05v-3.7c0-1-.25-1.74-.73-2.21Z"/>
        <path class="cls-1" d="M25.17,1.63v8.69h2.05V1.63h-2.05Z"/>
        <path class="cls-1" d="M36.75,5.51c-.17-.41-.44-.77-.78-1.07-.36-.31-.81-.55-1.35-.72-.55-.17-1.2-.26-1.95-.26s-1.4.09-1.95.26c-.54.17-.99.41-1.35.72-.35.3-.61.66-.78,1.07-.17.41-.26.88-.26,1.38s.09.97.26,1.38c.17.41.43.77.78,1.06.35.3.81.54,1.35.72.55.18,1.2.27,1.95.27s1.4-.09,1.95-.27c.54-.18.99-.41,1.35-.72.35-.3.61-.66.78-1.06.17-.41.26-.88.26-1.38s-.09-.96-.26-1.38ZM34.32,8.47c-.41.32-.96.49-1.66.49s-1.25-.17-1.66-.49c-.43-.34-.64-.87-.64-1.59s.22-1.23.64-1.57c.41-.33.96-.5,1.66-.5s1.25.17,1.66.5c.43.34.64.87.64,1.57s-.22,1.24-.65,1.59Z"/>
        <path class="cls-1" d="M44.1,3.92l-2.38,5.23-2.36-5.23h-2.27l3.3,6.4h2.69l3.3-6.4h-2.28Z"/>
        <path class="cls-1" d="M54.66,6.86c0-1.12-.33-1.95-1.02-2.53-.69-.58-1.73-.88-3.08-.88-.66,0-1.25.08-1.76.23-.5.15-.93.37-1.28.66-.34.28-.61.64-.79,1.06-.18.43-.28.93-.28,1.49s.1,1.07.28,1.49c.18.41.45.77.79,1.05.35.29.78.51,1.28.66.51.15,1.11.23,1.76.23,1.13,0,2.06-.2,2.77-.59.56-.31.94-.7,1.15-1.2h-2.09s-.04.03-.06.05c-.09.07-.22.13-.39.19-.15.05-.34.1-.56.14-.23.04-.5.06-.82.06-.63,0-1.1-.1-1.45-.29-.39-.22-.61-.57-.62-1.02v-.3s6.16,0,6.16,0v-.48ZM52.61,6.38h-4.12v-.42c0-.23.11-.57.55-.85.32-.2.82-.3,1.52-.3s1.18.1,1.5.3c.45.28.55.62.55.85v.42Z"/>
        <path class="cls-1" d="M59.7,4.16v6.19h2.04v-6.19h-2.04ZM61.57,1.16c-.21-.21-.49-.31-.85-.31s-.64.1-.85.31c-.21.21-.31.49-.31.85s.1.64.31.85.48.31.85.31.64-.1.85-.31c.21-.21.31-.49.31-.85s-.1-.63-.31-.85Z"/>
        <path class="cls-1" d="M49.94,15.58v6.19h2.05v-6.19h-2.05ZM51.81,12.58c-.21-.21-.49-.31-.85-.31s-.64.1-.85.31c-.21.21-.31.49-.31.85s.1.64.31.85c.21.21.49.31.85.31s.63-.1.85-.31c.21-.21.31-.49.31-.85s-.1-.63-.31-.84Z"/>
        <path class="cls-1" d="M70.4,4.4c-.49-.47-1.29-.71-2.38-.71-.7,0-1.27.09-1.7.26-.42.17-.75.41-.97.71l-.34.44-.41-1.18h-1.61v6.4h2.04v-4.1c.01-.16.06-.31.14-.46.09-.16.22-.29.39-.4.16-.1.35-.17.6-.23.23-.05.51-.08.83-.08.37,0,.69.03.94.09.27.06.5.17.68.31.18.15.31.33.38.54.06.19.1.4.1.64v3.7h2.04v-3.7c0-.99-.25-1.74-.73-2.21Z"/>
      </g>
    </g>
  </g>
</svg>