<?xml version="1.0" encoding="UTF-8"?>
<svg id="Layer_2" data-name="Layer 2" xmlns="http://www.w3.org/2000/svg" viewBox="0 0 79.02 23.54">
  <defs>
    <style>
      .cls-1 {
        stroke-width: 0px;
      }
    </style>
  </defs>
  <g id="Layer_1-2" data-name="Layer 1">
    <g>
      <g>
        <path class="cls-1" d="M42.03,3.36h-10.09v16.81h3.36v-5.04h5.04c.93,0,1.68.75,1.68,1.68v3.36h3.36v-3.36c0-1.86-1.51-3.36-3.36-3.36,1.86,0,3.36-1.51,3.36-3.36v-3.36c0-1.85-1.51-3.36-3.36-3.36ZM42.03,10.09c0,.93-.75,1.68-1.68,1.68h-5.04v-5.04h5.04c.93,0,1.68.75,1.68,1.68v1.68Z"/>
        <path class="cls-1" d="M58.85,3.36h-6.73c-1.86,0-3.36,1.51-3.36,3.36v10.09c0,1.86,1.51,3.36,3.36,3.36h6.73c1.86,0,3.36-1.51,3.36-3.36v-3.36h-3.36v1.68c0,.93-.75,1.68-1.68,1.68h-3.36c-.93,0-1.68-.75-1.68-1.68v-6.73c0-.93.75-1.68,1.68-1.68h3.36c.93,0,1.68.75,1.68,1.68v1.68h3.36v-3.36c0-1.86-1.51-3.36-3.36-3.36Z"/>
        <polygon class="cls-1" points="65.57 3.36 65.57 6.73 70.62 6.73 70.62 20.18 73.98 20.18 73.98 6.73 79.02 6.73 79.02 3.36 65.57 3.36"/>
      </g>
      <g>
        <polygon class="cls-1" points="0 0 10.15 0 10.15 3.35 3.46 3.35 3.46 16.73 0 16.81 0 0"/>
        <polygon class="cls-1" points="13.5 3.35 13.5 0 23.54 0 23.54 16.73 20.19 16.73 20.19 3.35 13.5 3.35"/>
        <polygon class="cls-1" points="16.84 6.69 16.84 10.04 10.15 10.04 10.15 13.39 16.84 13.39 16.84 16.73 6.8 16.73 6.8 6.69 16.84 6.69"/>
        <polygon class="cls-1" points="0 20.18 23.54 20.2 23.54 23.54 0 23.54 0 20.18"/>
      </g>
    </g>
  </g>
</svg>