<?xml version="1.0" encoding="UTF-8"?>
<svg id="Layer_1" data-name="Layer 1" xmlns="http://www.w3.org/2000/svg" viewBox="0 0 1752.17 429.41">
  <defs>
    <style>
      .cls-1 {
        fill: #221f20;
        stroke-width: 0px;
      }
    </style>
  </defs>
  <path class="cls-1" d="M366.37,120.2L247.42,1.25c-.8-.8-1.88-1.25-3.01-1.25h-121.5c-1.12,0-2.21.45-3,1.25L1.25,119.9c-.8.8-1.25,1.88-1.25,3.01v123.35c0,1.12.45,2.21,1.25,3l178.9,178.9c1.66,1.66,4.35,1.66,6.01,0l180.21-180.21c.8-.79,1.25-1.88,1.25-3v-121.74c0-1.13-.45-2.21-1.25-3.01ZM205.27,348.15l-19.11,19.12c-1.66,1.66-4.35,1.66-6.01,0l-19.11-19.12c-2.68-2.67-.79-7.26,3-7.26h38.23c3.79,0,5.68,4.59,3,7.26ZM312.19,241.23l-55.35,55.36c-.8.8-1.88,1.24-3.01,1.24H112.48c-1.13,0-2.21-.44-3.01-1.24l-54.8-54.8c-1.66-1.67-1.66-4.36,0-6.02l83.53-83.53c.79-.8,1.87-1.24,3-1.24h85.01c1.13,0,2.21.44,3.01,1.24l82.97,82.98c1.67,1.66,1.67,4.35,0,6.01ZM324.35,176.21c0,3.79-4.58,5.69-7.26,3.01l-70.04-70.04c-.79-.8-1.88-1.24-3-1.24h-120.68c-1.13,0-2.21.44-3.01,1.24l-70.04,70.04c-2.68,2.68-7.26.78-7.26-3.01v-35.46c0-1.13.45-2.21,1.25-3.01l93.43-93.43c.8-.8,1.88-1.25,3.01-1.25h85.82c1.13,0,2.21.45,3.01,1.25l93.52,93.52c.8.8,1.25,1.88,1.25,3.01v35.37Z"/>
  <g>
    <path class="cls-1" d="M1453.99,133.36v-43.7h42.79v250.97h-42.4v-44.4c-5.66,6.59-10.53,13.28-16.42,18.92-17.15,16.44-37.69,25.96-61.42,28.68-22.61,2.59-44.37.21-65.22-9.37-24.05-11.05-41.83-28.57-54.05-51.8-9.37-17.82-14.08-36.83-15.4-57-2.09-31.98,3.07-62.12,20.99-89.12,18.05-27.19,43.41-43.75,75.78-49.26,25.17-4.29,49.71-2.45,73,8.6,16.32,7.75,29.94,18.9,39.92,34.17.56.86,1.21,1.65,2.43,3.31ZM1454.63,214.68c-.82-6.99-1.45-14-2.49-20.96-2.86-19.04-11.1-35.7-24.96-48.87-20.26-19.24-45.06-26.41-72.45-21.79-30.52,5.15-51.68,22.79-63.12,51.68-5.79,14.61-7.44,29.77-6.71,45.44.6,12.82,2.77,25.16,7.82,36.92,15.06,35.05,48.95,55.12,89.09,49.48,17.52-2.46,32.78-9.54,45.29-21.87,19.46-19.18,26.68-43.29,27.53-70.04Z"/>
    <path class="cls-1" d="M577.47,230.36c1.04,14.81,3.97,28.33,11.34,40.46,13.72,22.56,34.1,34.74,60.27,37.59,19.47,2.12,37.77-.95,54.35-11.91,11.52-7.62,19.24-18.27,24.82-30.7.51-1.14,1.95-2.63,2.97-2.65,13.87-.15,27.74-.08,41.62-.03.41,0,.83.32,1.59.63-3.3,12.42-8.64,23.81-16.21,34.11-18.12,24.65-42.38,39.72-72.52,44.71-36.65,6.07-71.42,1.42-102.19-21.02-25.27-18.43-39.53-43.89-46.18-74.08-3.46-15.68-3.79-31.6-2.54-47.34,2.81-35.36,15.58-66.37,44.07-89.22,16.08-12.9,34.6-20.43,55.03-23.68,14.89-2.37,29.79-2.88,44.61-.73,40.59,5.89,71.27,25.98,89.42,63.57,9.36,19.4,12.32,39.92,11.46,61.18-.25,6.23-.55,12.47-.84,19.1h-201.05ZM578.45,195.76h157.83c-.42-4.04-.74-7.73-1.21-11.4-2.31-17.97-9.77-33.38-23.91-44.92-20.8-16.97-44.92-21.26-70.82-16.67-34.98,6.21-60.8,36.78-61.89,72.98Z"/>
    <path class="cls-1" d="M1557.65,267.05h43.09c1.69,12.09,7.09,22,16.79,29.41,9.51,7.27,20.44,10.55,32.2,12,14.22,1.75,27.84.17,40.83-5.9,15.48-7.24,23.55-24.09,18.82-39.28-2.11-6.77-6.69-11.64-12.9-14.96-14.35-7.67-30.04-11.45-45.49-16.08-16.44-4.92-33.06-9.69-48.77-16.46-17.14-7.39-30.83-19.49-36.77-38.14-9.56-30.01.82-58.55,27.64-75.95,16.88-10.95,35.67-15.63,55.66-16.28,14.68-.48,29.22.35,43.25,4.88,30.31,9.78,50.22,29.37,56.53,61.28.78,3.94.86,8.02,1.3,12.41h-41.55c-1.44-4.88-2.42-10.12-4.51-14.88-7.58-17.26-21.97-24.88-39.9-27.28-12.66-1.69-25.06-.94-36.98,3.83-9.86,3.95-18.18,10.14-20.87,20.82-3.87,15.35-.58,26.72,14.37,35.17,10.89,6.15,23.11,10.11,35.03,14.23,18.46,6.38,37.57,11.05,55.65,18.3,21.39,8.58,36.74,23.88,40.27,47.73,4.09,27.61-7.01,51.84-31.98,67.56-16.75,10.55-35.33,14.8-54.97,15.3-23.65.6-46.25-3.29-67.04-15.15-22.89-13.06-36.59-32.41-40.08-58.69-.1-.77-.09-1.57-.04-2.36.03-.44.22-.86.41-1.53Z"/>
    <path class="cls-1" d="M1193.4,164.31c-13.73,0-26.94.06-40.14-.13-.94-.01-2.57-1.81-2.68-2.9-2.32-23.5-23.09-37.85-44.54-39.63-12.28-1.02-24.12-.45-35.61,3.97-14.6,5.62-23.25,17.47-22.61,31.32.63,13.65,8.99,22.59,20.56,27.53,14.18,6.05,29.15,10.23,43.75,15.3,16.07,5.59,32.62,10.16,48.02,17.22,15.81,7.25,27.77,19.32,32.68,36.9,7.94,28.46-1.98,55.83-25.94,72.84-14.26,10.13-30.29,15.3-47.64,17.14-26.35,2.8-51.72-.23-75.41-12.56-21.2-11.04-35.76-27.77-41.47-51.38-.98-4.04-1.24-8.25-1.94-13.15,5.5,0,10.33,0,15.17,0,8.35,0,16.71-.15,25.06.15,1.43.05,3.8,1.81,4.04,3.1,3.01,16.15,12.97,26.78,27.44,32.93,19.71,8.38,40.05,8.87,59.88.41,13.35-5.7,21.84-15.83,22.09-31.08.17-10.81-4.87-18.88-14.4-24.07-15.27-8.3-32.07-12.21-48.62-16.81-18.08-5.02-36.42-9.58-52.67-19.3-14.79-8.84-26.49-20.71-30.72-38.17-6.34-26.19.37-50.28,23.3-68.28,17.75-13.93,38.59-19.5,60.94-20.25,18.21-.61,36.05.98,52.92,8.4,28.37,12.48,44.96,33.72,47.83,64.98.14,1.55.4,3.09.71,5.51Z"/>
    <path class="cls-1" d="M881.16,340.72h-42.02V89.29c13.38,0,26.44-.08,39.49.17.87.02,2.38,2.53,2.41,3.9.21,9.59.12,19.19.12,28.79,0,1.52,0,3.05,0,4.57,8.79-13.74,19.9-24.63,34.33-32.05,14.26-7.33,29.62-9.57,45.81-10.27v44.03c-5.37,0-10.69-.23-15.97.05-13.28.7-26.02,3.32-37.36,10.89-14.41,9.63-21.68,23.76-24.58,40.15-1.66,9.34-2.07,18.99-2.12,28.5-.21,42.01-.09,84.02-.09,126.03,0,2.02,0,4.05,0,6.67Z"/>
  </g>
</svg>