<?xml version="1.0" encoding="UTF-8"?>
<svg id="Layer_2" data-name="Layer 2" xmlns="http://www.w3.org/2000/svg" viewBox="0 0 110.55 23.54">
  <defs>
    <style>
      .cls-1 {
fill: #083344;
        stroke-width: 0px;
      }
    </style>
  </defs>
  <g id="Layer_1-2" data-name="Layer 1">
    <g>
      <g>
        <path class="cls-1" d="M11.06,12.93s0,0-.01,0c-.43.24-.98.09-1.23-.34-.02-.03-.18-.32-.44-.79-.51-.91-1.44-2.5-2.48-4.08C4.29,3.81,3.16,3.33,2.93,3.27c-.07.16-.36,1.2,1.43,5.03.93,1.99,2.01,3.86,2.35,4.42.07.11.1.18.11.19.25.43.11.98-.32,1.23-.43.25-.98.12-1.24-.31,0-.01-.05-.08-.11-.18-.2-.33-.68-1.08-1.26-1.82-.43-.54-.82-.96-1.17-1.24-.4-.33-.6-.35-.64-.36,0,0,0,0,0,0,0,0-.02.01-.02.02-.1.07-.21.19-.24.5-.03.28.02.64.13,1.05.23.8.64,1.51.64,1.51.25.43.11.99-.32,1.24-.43.25-.99.11-1.24-.32-.02-.04-.52-.89-.81-1.9-.19-.64-.25-1.23-.2-1.75.07-.75.4-1.36.95-1.78.42-.33.94-.46,1.48-.36-.54-1.22-.93-2.28-1.15-3.16-.17-.66-.24-1.22-.23-1.7.01-.66.19-1.19.54-1.57.39-.44.93-.64,1.51-.57.79.09,1.65.68,2.7,1.83-.09-.45-.12-.85-.12-1.21.01-.67.2-1.19.54-1.57,0,0,0,0,0-.01C6.61.11,7.11-.06,7.64.02c.71.11,1.46.66,2.36,1.73.61.73,1.3,1.71,2.05,2.92,1.25,2.03,2.24,3.99,2.28,4.08.22.45.04.99-.4,1.22-.45.22-.99.04-1.22-.4,0-.02-.99-1.97-2.19-3.93-.7-1.13-1.33-2.04-1.88-2.7-.56-.67-.91-.94-1.1-1.05-.07.39-.06,1.66,1.5,5.14.7,1.57,1.48,3.05,1.95,3.91.26.46.42.75.43.78.23.43.08.97-.34,1.21ZM7.57,1.73h0s0,0,0,0ZM2.95,3.24h0s0,0,0,0Z"/>
        <path class="cls-1" d="M15.79,22.73c-.86.5-1.84.77-2.9.81-1.43.05-2.88-.3-4.31-1.02-1.11-.56-2.21-1.36-3.27-2.36-1.78-1.68-2.84-3.38-2.88-3.45-.26-.43-.13-.98.29-1.25.43-.26.98-.13,1.25.29h0s1,1.59,2.61,3.12c.93.87,1.88,1.56,2.84,2.04,1.15.58,2.3.85,3.42.82,1.46-.05,2.65-.71,3.54-1.96.67-.94.95-1.91,1.02-2.18,0-.01,0-.02,0-.02.13-.48.63-.77,1.11-.64.48.13.77.63.64,1.11h0c-.12.46-.48,1.63-1.3,2.79-.58.82-1.28,1.46-2.06,1.91Z"/>
        <path class="cls-1" d="M19.51,15.21c-.3.17-.68.17-.98-.04-.39-.27-.5-.8-.26-1.2.02-.1.1-.58-.1-1.94-.06-.39-.13-.81-.22-1.24-.48-.3-.97-.71-1.49-1.23-1.05-1.05-2.11-2.53-2.86-3.95-.45-.86-.77-1.67-.91-2.34-.21-.97-.06-1.7.43-2.17.03-.03.07-.06.11-.09.43-.29,1.56-.84,2.86.47,1.63,1.64,2.77,5.47,3.19,7.04.09.34.18.69.25,1.02.14.04.24.03.3.01.17-.06.49-.51.59-1.8.04-.5.47-.87.97-.83.5.04.87.47.83.97-.07.96-.26,1.7-.56,2.26-.44.81-1.06,1.09-1.5,1.18-.09.02-.18.03-.26.04.05.31.09.61.13.9.21,1.76,0,2.33-.24,2.67-.08.11-.18.2-.29.26ZM18.32,13.91s0,0,0,0c0,0,0,0,0,0ZM14.42,2.48c0,.3.14,1.05.82,2.34.52.98,1.19,1.97,1.9,2.8-.79-2.51-1.75-4.44-2.52-5.02-.08-.06-.15-.1-.19-.11Z"/>
      </g>
      <g>
        <path class="cls-1" d="M38.89,15.77c-.23.22-.57.42-1.05.42-.6,0-1.05-.37-1.05-.97v-4.35c0-1.58-.18-2.77-1.27-2.77-.93,0-1.92,1.15-1.95,3.77v1.92c0,.55.05,1.38.28,1.98-.25.22-.55.42-1.03.42-.58,0-1.02-.37-1.02-.97v-4.35c0-1.78-.28-2.77-1.37-2.77-.95,0-1.85,1.18-1.85,3.97,0,2.37,0,2.95.32,3.72-.17.15-.48.4-1.07.4s-1.03-.4-1.03-1.05l-.02-5.67c0-.6-.18-.88-.53-.88-.17,0-.38.1-.48.3-.13-.22-.2-.42-.2-.63,0-.6.5-1.05,1.22-1.05.97,0,1.57.68,1.58,2.07.42-1.27,1.3-2.07,2.67-2.07s2.12.7,2.38,2.03c.42-1.23,1.33-2.03,2.67-2.03,1.72,0,2.53,1.17,2.53,3.4v3.18c0,.55.05,1.38.27,1.98Z"/>
        <path class="cls-1" d="M47.34,14.57c-.43,1.05-1.57,1.62-3.07,1.62-2.5,0-4.08-1.58-4.08-4.48s1.45-4.5,4.12-4.5c1.85,0,3.25.83,3.25,2.47s-1.45,2.55-3.68,2.55c-.57,0-1.12-.02-1.72-.1.17,2.17,1.17,2.9,2.6,2.9,1.22,0,2.1-.53,2.43-1.35.23.1.38.33.15.9ZM42.13,11.45c.25.02.52.03.78.03,1.28.02,2.67-.28,2.67-2.1,0-1.2-.68-1.5-1.35-1.5-1.28,0-2.1,1.28-2.1,3.57Z"/>
        <path class="cls-1" d="M55.8,14.57c-.43,1.05-1.57,1.62-3.07,1.62-2.5,0-4.08-1.58-4.08-4.48s1.45-4.5,4.12-4.5c1.85,0,3.25.83,3.25,2.47s-1.45,2.55-3.68,2.55c-.57,0-1.12-.02-1.72-.1.17,2.17,1.17,2.9,2.6,2.9,1.22,0,2.1-.53,2.43-1.35.23.1.38.33.15.9ZM50.59,11.45c.25.02.52.03.78.03,1.28.02,2.67-.28,2.67-2.1,0-1.2-.68-1.5-1.35-1.5-1.28,0-2.1,1.28-2.1,3.57Z"/>
        <path class="cls-1" d="M61.99,7.38l-.02.45c-.02.3-.22.47-.47.47h-1.57v.55l-.02,5.02c0,.58.27.9.78.9.27,0,.62-.08.72-.28.15.22.22.45.22.62,0,.62-.67,1.05-1.63,1.05-1.22,0-1.9-.82-1.9-2.13v-5.72h-.23c-.22,0-.78.03-1,.07l.02-.48c.02-.3.22-.45.48-.45h.73v-1.27c0-.6.45-.95,1.07-.95.53,0,.88.27,1.03.4-.15.55-.22,1.1-.25,1.82h.3c.17,0,1.57-.03,1.73-.05Z"/>
        <path class="cls-1" d="M63.26,5.08c0-.62.5-1.12,1.12-1.12s1.1.5,1.1,1.12-.5,1.08-1.1,1.08-1.12-.48-1.12-1.08ZM65.62,15.77c-.17.15-.53.42-1.05.42-.58,0-1.02-.37-1.02-.97l-.02-5.64c0-.65-.05-1.37-.27-2,.17-.13.52-.4,1.02-.4.6,0,1.03.37,1.03.97l.03,5.64c0,.65.03,1.38.27,1.98Z"/>
        <path class="cls-1" d="M75.13,15.77c-.25.23-.6.42-1.05.42-.62,0-1.07-.37-1.07-.97v-4.35c-.02-1.73-.32-2.7-1.45-2.7-1.05,0-2.03,1.15-2.03,3.83,0,2.42,0,3.02.32,3.78-.17.15-.55.4-1.03.4-.63,0-1.08-.4-1.08-1.05v-5.68c-.02-.62-.15-.87-.45-.87-.12,0-.33.03-.43.23-.15-.22-.22-.4-.22-.63,0-.57.43-.98,1.2-.98.93,0,1.5.65,1.5,1.95v.07c.47-1.28,1.42-2.02,2.82-2.02,1.83,0,2.68,1.15,2.68,3.4v3.18c.02.55.05,1.38.3,1.98Z"/>
        <path class="cls-1" d="M76.5,17.82c0-.8.55-1.32,1.32-1.32.38,0,.68.1.85.32-.33.27-.48.65-.48,1.08,0,.77.5,1.25,1.38,1.25,1.65,0,2.43-1.43,2.43-3.77v-1.2c-.38,1.15-1.3,1.8-2.62,1.8-1.77,0-2.95-1.17-2.95-4.15,0-2.43.9-4.63,3.95-4.63,1.28,0,2.62.35,3.42,1.1v6.92c0,3.4-1.82,4.55-4.28,4.55-1.62,0-3.02-.57-3.02-1.95ZM81.99,11.84l.02-3.47c-.33-.32-.93-.48-1.55-.48-1.73,0-2.08,1.8-2.08,4.12s.43,3.08,1.55,3.08c1.45,0,2.05-1.47,2.07-3.25Z"/>
        <path class="cls-1" d="M85.82,14.02V4.73c0-.6.45-.97,1.05-.97.53,0,.88.27,1.03.42-.23.85-.27,1.7-.27,3.25v6.44c0,.58.2.88.6.88.2,0,.45-.07.55-.27.17.2.22.45.22.62,0,.62-.63,1.03-1.35,1.03-1.18,0-1.83-.8-1.83-2.12Z"/>
        <path class="cls-1" d="M90.04,5.08c0-.62.5-1.12,1.12-1.12s1.1.5,1.1,1.12-.5,1.08-1.1,1.08-1.12-.48-1.12-1.08ZM92.41,15.77c-.17.15-.53.42-1.05.42-.58,0-1.02-.37-1.02-.97l-.02-5.64c0-.65-.05-1.37-.27-2,.17-.13.52-.4,1.02-.4.6,0,1.03.37,1.03.97l.03,5.64c0,.65.03,1.38.27,1.98Z"/>
        <path class="cls-1" d="M101.92,15.77c-.25.23-.6.42-1.05.42-.62,0-1.07-.37-1.07-.97v-4.35c-.02-1.73-.32-2.7-1.45-2.7-1.05,0-2.03,1.15-2.03,3.83,0,2.42,0,3.02.32,3.78-.17.15-.55.4-1.03.4-.63,0-1.08-.4-1.08-1.05v-5.68c-.02-.62-.15-.87-.45-.87-.12,0-.33.03-.43.23-.15-.22-.22-.4-.22-.63,0-.57.43-.98,1.2-.98.93,0,1.5.65,1.5,1.95v.07c.47-1.28,1.42-2.02,2.82-2.02,1.83,0,2.68,1.15,2.68,3.4v3.18c.02.55.05,1.38.3,1.98Z"/>
        <path class="cls-1" d="M110.34,14.57c-.43,1.05-1.57,1.62-3.07,1.62-2.5,0-4.08-1.58-4.08-4.48s1.45-4.5,4.12-4.5c1.85,0,3.25.83,3.25,2.47s-1.45,2.55-3.68,2.55c-.57,0-1.12-.02-1.72-.1.17,2.17,1.17,2.9,2.6,2.9,1.22,0,2.1-.53,2.43-1.35.23.1.38.33.15.9ZM105.13,11.45c.25.02.52.03.78.03,1.28.02,2.67-.28,2.67-2.1,0-1.2-.68-1.5-1.35-1.5-1.28,0-2.1,1.28-2.1,3.57Z"/>
      </g>
    </g>
  </g>
</svg>