<?xml version="1.0" encoding="UTF-8"?>
<svg id="Layer_2" data-name="Layer 2" xmlns="http://www.w3.org/2000/svg" viewBox="0 0 22.24 23.54">
  <defs>
    <style>
      .cls-1 {
        stroke-width: 0px;
      }
    </style>
  </defs>
  <g id="Layer_1-2" data-name="Layer 1">
    <g>
      <path class="cls-1" d="M11.06,12.93s0,0-.01,0c-.43.24-.98.09-1.23-.34-.02-.03-.18-.32-.44-.79-.51-.91-1.44-2.5-2.48-4.08C4.29,3.81,3.16,3.33,2.93,3.27c-.07.16-.36,1.2,1.43,5.03.93,1.99,2.01,3.86,2.35,4.42.07.11.1.18.11.19.25.43.11.98-.32,1.23-.43.25-.98.12-1.24-.31,0-.01-.05-.08-.11-.18-.2-.33-.68-1.08-1.26-1.82-.43-.54-.82-.96-1.17-1.24-.4-.33-.6-.35-.64-.36,0,0,0,0,0,0,0,0-.02.01-.02.02-.1.07-.21.19-.24.5-.03.28.02.64.13,1.05.23.8.64,1.51.64,1.51.25.43.11.99-.32,1.24-.43.25-.99.11-1.24-.32-.02-.04-.52-.89-.81-1.9-.19-.64-.25-1.23-.2-1.75.07-.75.4-1.36.95-1.78.42-.33.94-.46,1.48-.36-.54-1.22-.93-2.28-1.15-3.16-.17-.66-.24-1.22-.23-1.7.01-.66.19-1.19.54-1.57.39-.44.93-.64,1.51-.57.79.09,1.65.68,2.7,1.83-.09-.45-.12-.85-.12-1.21.01-.67.2-1.19.54-1.57,0,0,0,0,0-.01C6.61.11,7.11-.06,7.64.02c.71.11,1.46.66,2.36,1.73.61.73,1.3,1.71,2.05,2.92,1.25,2.03,2.24,3.99,2.28,4.08.22.45.04.99-.4,1.22-.45.22-.99.04-1.22-.4,0-.02-.99-1.97-2.19-3.93-.7-1.13-1.33-2.04-1.88-2.7-.56-.67-.91-.94-1.1-1.05-.07.39-.06,1.66,1.5,5.14.7,1.57,1.48,3.05,1.95,3.91.26.46.42.75.43.78.23.43.08.97-.34,1.21ZM7.57,1.73h0s0,0,0,0ZM2.95,3.24h0s0,0,0,0Z"/>
      <path class="cls-1" d="M15.79,22.73c-.86.5-1.84.77-2.9.81-1.43.05-2.88-.3-4.31-1.02-1.11-.56-2.21-1.36-3.27-2.36-1.78-1.68-2.84-3.38-2.88-3.45-.26-.43-.13-.98.29-1.25.43-.26.98-.13,1.25.29h0s1,1.59,2.61,3.12c.93.87,1.88,1.56,2.84,2.04,1.15.58,2.3.85,3.42.82,1.46-.05,2.65-.71,3.54-1.96.67-.94.95-1.91,1.02-2.18,0-.01,0-.02,0-.02.13-.48.63-.77,1.11-.64.48.13.77.63.64,1.11h0c-.12.46-.48,1.63-1.3,2.79-.58.82-1.28,1.46-2.06,1.91Z"/>
      <path class="cls-1" d="M19.51,15.21c-.3.17-.68.17-.98-.04-.39-.27-.5-.8-.26-1.2.02-.1.1-.58-.1-1.94-.06-.39-.13-.81-.22-1.24-.48-.3-.97-.71-1.49-1.23-1.05-1.05-2.11-2.53-2.86-3.95-.45-.86-.77-1.67-.91-2.34-.21-.97-.06-1.7.43-2.17.03-.03.07-.06.11-.09.43-.29,1.56-.84,2.86.47,1.63,1.64,2.77,5.47,3.19,7.04.09.34.18.69.25,1.02.14.04.24.03.3.01.17-.06.49-.51.59-1.8.04-.5.47-.87.97-.83.5.04.87.47.83.97-.07.96-.26,1.7-.56,2.26-.44.81-1.06,1.09-1.5,1.18-.09.02-.18.03-.26.04.05.31.09.61.13.9.21,1.76,0,2.33-.24,2.67-.08.11-.18.2-.29.26ZM18.32,13.91s0,0,0,0c0,0,0,0,0,0ZM14.42,2.48c0,.3.14,1.05.82,2.34.52.98,1.19,1.97,1.9,2.8-.79-2.51-1.75-4.44-2.52-5.02-.08-.06-.15-.1-.19-.11Z"/>
    </g>
  </g>
</svg>