<?xml version="1.0" encoding="UTF-8"?>
<svg id="Layer_2" data-name="Layer 2" xmlns="http://www.w3.org/2000/svg" viewBox="0 0 101.79 23.54">
  <defs>
    <style>
      .cls-1 {
        fill: #fff;
        stroke-width: 0px;
      }
    </style>
  </defs>
  <g id="Layer_1-2" data-name="Layer 1">
    <g>
      <g>
        <path class="cls-1" d="M21.4,9.89c.1.52.16,1.05.18,1.59,0-.07,0-.14,0-.21,0-.48-.06-.94-.18-1.39ZM1.96,11.28c0,.07,0,.14,0,.21.02-.54.07-1.08.18-1.59-.12.44-.18.91-.18,1.39Z"/>
        <path class="cls-1" d="M11.77,0C5.27,0,0,5.27,0,11.77s5.27,11.77,11.77,11.77,11.77-5.27,11.77-11.77S18.27,0,11.77,0ZM11.91,21.57s-.09,0-.14,0-.09,0-.14,0c-5.35-.07-9.67-4.44-9.67-9.81,0-.09,0-.19,0-.28,0-.07,0-.14,0-.21,0-.48.06-.94.18-1.39.6-2.26,2.62-3.94,5.05-4.01.05,0,.11,0,.16,0,1.82,0,3.44.91,4.41,2.29.98-1.39,2.59-2.29,4.41-2.29.05,0,.11,0,.16,0,2.43.07,4.45,1.75,5.05,4.01.12.44.18.91.18,1.39,0,.07,0,.14,0,.21,0,.09,0,.19,0,.28,0,5.37-4.32,9.73-9.67,9.81Z"/>
        <path class="cls-1" d="M7.36,7.85c-1.9,0-3.43,1.54-3.43,3.43s1.54,3.43,3.43,3.43,3.43-1.54,3.43-3.43-1.54-3.43-3.43-3.43ZM7.36,12.75c-.81,0-1.47-.66-1.47-1.47s.66-1.47,1.47-1.47,1.47.66,1.47,1.47-.66,1.47-1.47,1.47Z"/>
        <path class="cls-1" d="M16.18,7.85c-1.9,0-3.43,1.54-3.43,3.43s1.54,3.43,3.43,3.43,3.43-1.54,3.43-3.43-1.54-3.43-3.43-3.43ZM16.18,12.75c-.81,0-1.47-.66-1.47-1.47s.66-1.47,1.47-1.47,1.47.66,1.47,1.47-.66,1.47-1.47,1.47Z"/>
        <path class="cls-1" d="M13.68,15.69l-1.91,3.93-1.91-3.93c.74-.36,1.39-.8,1.91-1.31.52.51,1.17.95,1.91,1.31Z"/>
      </g>
      <g>
        <path class="cls-1" d="M34.76,12.75h2.87v3.44c-.37.2-.82.35-1.33.46-.55.11-1.13.17-1.75.17-.7,0-1.36-.13-1.95-.39-.6-.26-1.12-.61-1.56-1.07-.44-.45-.79-.99-1.04-1.61-.25-.61-.38-1.29-.38-2s.11-1.35.34-1.97c.23-.61.55-1.15.97-1.6.42-.45.92-.82,1.5-1.08.58-.27,1.24-.4,1.97-.4.64,0,1.27.1,1.85.3.58.2,1.14.55,1.66,1.05l.08.07,1.39-1.49-.07-.07c-.52-.53-1.17-.96-1.94-1.26-.77-.3-1.76-.46-2.97-.46-1,0-1.93.18-2.77.53-.84.35-1.57.84-2.17,1.46-.6.62-1.07,1.36-1.41,2.19-.34.84-.51,1.76-.51,2.73,0,.92.16,1.81.47,2.65.32.83.78,1.58,1.38,2.21.6.63,1.34,1.14,2.21,1.51.87.37,1.87.56,2.98.56.39,0,.81-.02,1.27-.07.45-.05.9-.13,1.33-.23.43-.1.86-.23,1.27-.38.41-.15.78-.32,1.1-.52l.05-.03v-6.56h-4.84v1.86Z"/>
        <path class="cls-1" d="M49.83,10.61c-.42-.42-.93-.76-1.5-1-.57-.24-1.2-.37-1.85-.37s-1.28.12-1.85.37c-.57.24-1.08.58-1.5,1-.42.42-.76.92-1,1.48-.24.56-.37,1.17-.37,1.82s.12,1.26.37,1.83c.24.57.58,1.06,1,1.48.42.42.93.75,1.5.99s1.2.37,1.85.37,1.28-.12,1.85-.37c.57-.24,1.07-.58,1.5-.99.42-.42.76-.92,1-1.48.24-.57.37-1.18.37-1.83s-.12-1.26-.37-1.82c-.24-.56-.58-1.06-1-1.48ZM49.22,13.91c0,.43-.07.82-.2,1.18-.13.36-.31.66-.55.92-.23.25-.52.45-.86.6-.34.15-.73.22-1.15.22s-.81-.07-1.15-.22c-.34-.15-.63-.35-.86-.6-.23-.25-.42-.56-.55-.92-.13-.36-.19-.76-.19-1.18s.07-.82.19-1.18c.13-.36.31-.67.55-.92.23-.25.52-.45.86-.6.34-.15.73-.22,1.15-.22s.81.07,1.15.22c.34.15.63.35.86.6.23.25.42.56.55.92.13.36.2.76.2,1.18Z"/>
        <path class="cls-1" d="M60.7,10.61c-.42-.42-.93-.76-1.5-1-.57-.24-1.2-.37-1.85-.37s-1.28.12-1.85.37c-.57.24-1.08.58-1.5,1-.42.42-.76.92-1,1.48-.24.56-.37,1.17-.37,1.82s.12,1.26.37,1.83.58,1.06,1,1.48c.42.42.93.75,1.5.99.57.24,1.2.37,1.85.37s1.28-.12,1.85-.37c.57-.24,1.08-.58,1.5-.99.42-.42.76-.92,1-1.48.24-.57.37-1.18.37-1.83s-.12-1.26-.37-1.82c-.24-.56-.58-1.06-1-1.48ZM60.1,13.91c0,.43-.07.82-.19,1.18-.13.36-.31.66-.55.92-.23.25-.52.45-.86.6-.34.15-.73.22-1.15.22s-.81-.07-1.15-.22c-.34-.15-.63-.35-.86-.6-.23-.25-.42-.56-.55-.92-.13-.36-.2-.76-.2-1.18s.07-.82.2-1.18c.13-.36.31-.66.55-.92.23-.25.52-.45.86-.6.34-.15.73-.22,1.15-.22s.81.07,1.15.22c.34.15.63.35.86.6.23.25.42.56.55.92.13.36.19.76.19,1.18Z"/>
        <path class="cls-1" d="M70.98,10.55c-.31-.38-.71-.68-1.2-.91-.57-.26-1.16-.39-1.76-.39-.68,0-1.31.12-1.86.36-.55.24-1.03.57-1.43,1-.39.42-.7.93-.91,1.49-.21.56-.32,1.18-.32,1.82s.11,1.25.34,1.81c.22.55.54,1.04.94,1.44.4.41.88.73,1.44.96.55.23,1.16.35,1.81.35.61,0,1.2-.13,1.76-.39.48-.22.88-.55,1.2-.99v1.01c0,.36-.05.71-.14,1.06-.09.34-.26.65-.48.92-.23.27-.54.49-.92.66-.39.17-.88.26-1.48.26s-1.17-.12-1.66-.35c-.49-.23-.94-.58-1.36-1.03l-.08-.09-1.26,1.56.07.07c.63.58,1.31,1,2.01,1.23.7.23,1.48.35,2.31.35.72,0,1.38-.11,1.98-.34.6-.22,1.11-.54,1.54-.95.42-.41.76-.89.99-1.45.23-.55.35-1.17.35-1.84v-8.71h-1.86v1.08ZM70.79,12.73c.13.36.19.76.19,1.18,0,.85-.25,1.53-.74,2.04-.49.51-1.17.76-2.01.76s-1.52-.26-2.01-.76c-.49-.51-.74-1.19-.74-2.04,0-.43.07-.82.19-1.18.13-.36.31-.66.55-.92.23-.25.52-.45.86-.6.34-.15.73-.22,1.15-.22s.81.07,1.15.22c.34.15.63.35.86.6.23.25.42.56.55.92Z"/>
        <path class="cls-1" d="M82.77,10.61c-.42-.42-.93-.76-1.5-1-.57-.24-1.2-.37-1.85-.37s-1.28.12-1.85.37c-.57.24-1.08.58-1.5,1-.42.42-.76.92-1,1.48-.24.56-.37,1.17-.37,1.82s.12,1.26.37,1.83.58,1.06,1,1.48c.42.42.93.75,1.5.99.57.24,1.2.37,1.85.37s1.28-.12,1.85-.37c.57-.24,1.08-.58,1.5-.99.42-.42.76-.91,1-1.48.24-.57.37-1.18.37-1.83s-.12-1.26-.37-1.82c-.24-.56-.58-1.06-1-1.48ZM82.17,13.91c0,.43-.07.82-.19,1.18-.13.36-.31.66-.55.92-.23.25-.52.45-.86.6-.34.15-.73.22-1.15.22s-.81-.07-1.15-.22c-.34-.15-.63-.35-.86-.6-.23-.25-.42-.56-.55-.92-.13-.36-.2-.76-.2-1.18s.07-.82.2-1.18c.13-.36.31-.66.55-.92.23-.25.52-.45.86-.6.34-.15.73-.22,1.15-.22s.81.07,1.15.22c.34.15.63.35.86.6.23.25.42.56.55.92.13.36.19.76.19,1.18Z"/>
        <path class="cls-1" d="M93.65,10.61c-.42-.42-.93-.76-1.5-1-.57-.24-1.2-.37-1.85-.37s-1.28.12-1.85.37c-.57.24-1.08.58-1.5,1-.42.42-.76.92-1,1.48-.24.56-.37,1.17-.37,1.82s.12,1.26.37,1.83c.24.57.58,1.06,1,1.48.42.42.93.75,1.5.99.57.24,1.2.37,1.85.37s1.28-.12,1.85-.37c.57-.24,1.08-.58,1.5-.99.42-.42.76-.92,1-1.48.24-.57.37-1.18.37-1.83s-.12-1.26-.37-1.82c-.24-.56-.58-1.06-1-1.48ZM93.05,13.91c0,.42-.07.82-.19,1.18-.13.36-.31.67-.55.92-.23.25-.52.45-.86.6-.34.15-.73.22-1.15.22s-.81-.07-1.15-.22c-.34-.15-.63-.35-.86-.6-.23-.25-.42-.56-.55-.92-.13-.36-.19-.76-.19-1.18s.07-.82.19-1.18c.13-.36.31-.66.55-.92.23-.25.52-.45.86-.6.34-.15.73-.22,1.15-.22s.81.07,1.15.22c.34.15.63.35.86.6.23.25.42.56.55.92.13.36.19.76.19,1.18Z"/>
        <path class="cls-1" d="M101.63,16.59c-.16.09-.34.15-.53.19-.2.04-.4.05-.59.05-.29,0-.52-.05-.66-.15-.15-.1-.26-.24-.33-.41-.07-.18-.12-.38-.13-.61-.01-.24-.02-.48-.02-.72v-3.83h2.36v-1.64h-2.36v-2.44h-1.86v2.44h-1.9v1.64h1.9v4.42c0,.36.02.71.05,1.06.03.36.14.69.31.99.17.3.45.54.81.73.36.18.87.28,1.52.28.18,0,.42-.02.74-.07.32-.04.59-.13.8-.24l.05-.03v-1.75l-.16.09Z"/>
      </g>
    </g>
  </g>
</svg>