<?xml version="1.0" encoding="UTF-8"?>
<svg id="Layer_2" data-name="Layer 2" xmlns="http://www.w3.org/2000/svg" viewBox="0 0 23.54 23.54">
  <defs>
    <style>
      .cls-1 {
        stroke-width: 0px;
      }
    </style>
  </defs>
  <g id="Layer_1-2" data-name="Layer 1">
    <g>
      <path class="cls-1" d="M21.4,9.89c.1.52.16,1.05.18,1.59,0-.07,0-.14,0-.21,0-.48-.06-.94-.18-1.39ZM1.96,11.28c0,.07,0,.14,0,.21.02-.54.07-1.08.18-1.59-.12.44-.18.91-.18,1.39Z"/>
      <path class="cls-1" d="M11.77,0C5.27,0,0,5.27,0,11.77s5.27,11.77,11.77,11.77,11.77-5.27,11.77-11.77S18.27,0,11.77,0ZM11.91,21.57s-.09,0-.14,0-.09,0-.14,0c-5.35-.07-9.67-4.44-9.67-9.81,0-.09,0-.19,0-.28,0-.07,0-.14,0-.21,0-.48.06-.94.18-1.39.6-2.26,2.62-3.94,5.05-4.01.05,0,.11,0,.16,0,1.82,0,3.44.91,4.41,2.29.98-1.39,2.59-2.29,4.41-2.29.05,0,.11,0,.16,0,2.43.07,4.45,1.75,5.05,4.01.12.44.18.91.18,1.39,0,.07,0,.14,0,.21,0,.09,0,.19,0,.28,0,5.37-4.32,9.73-9.67,9.81Z"/>
      <path class="cls-1" d="M7.36,7.85c-1.9,0-3.43,1.54-3.43,3.43s1.54,3.43,3.43,3.43,3.43-1.54,3.43-3.43-1.54-3.43-3.43-3.43ZM7.36,12.75c-.81,0-1.47-.66-1.47-1.47s.66-1.47,1.47-1.47,1.47.66,1.47,1.47-.66,1.47-1.47,1.47Z"/>
      <path class="cls-1" d="M16.18,7.85c-1.9,0-3.43,1.54-3.43,3.43s1.54,3.43,3.43,3.43,3.43-1.54,3.43-3.43-1.54-3.43-3.43-3.43ZM16.18,12.75c-.81,0-1.47-.66-1.47-1.47s.66-1.47,1.47-1.47,1.47.66,1.47,1.47-.66,1.47-1.47,1.47Z"/>
      <path class="cls-1" d="M13.68,15.69l-1.91,3.93-1.91-3.93c.74-.36,1.39-.8,1.91-1.31.52.51,1.17.95,1.91,1.31Z"/>
    </g>
  </g>
</svg>