<?xml version="1.0" encoding="UTF-8"?>
<svg id="Layer_2" data-name="Layer 2" xmlns="http://www.w3.org/2000/svg" viewBox="0 0 78.07 23.54">
  <defs>
    <style>
      .cls-1 {
fill: #083344;
        stroke-width: 0px;
      }
    </style>
  </defs>
  <g id="Layer_1-2" data-name="Layer 1">
    <g id="_532b3984-cabe-455b-8286-cff229691025_5" data-name="532b3984-cabe-455b-8286-cff229691025@5">
      <g>
        <path class="cls-1" d="M40.26,10.93h-3.5l-.53,1.61h-2.88l3.6-9.87h3.16l3.58,9.87h-2.9l-.53-1.61ZM39.57,8.83l-1.06-3.19-1.05,3.19h2.11Z"/>
        <path class="cls-1" d="M51.56,3.3c.78.42,1.38,1,1.8,1.74.42.75.63,1.6.63,2.56s-.21,1.8-.64,2.55c-.42.75-1.03,1.33-1.81,1.76-.78.42-1.68.64-2.71.64h-3.9V2.68h3.9c1.04,0,1.94.21,2.72.62ZM50.52,9.46c.46-.44.69-1.06.69-1.86s-.23-1.44-.69-1.88c-.46-.44-1.09-.66-1.89-.66h-.95v5.07h.95c.8,0,1.43-.22,1.89-.66Z"/>
        <path class="cls-1" d="M61.81,10.93h-3.5l-.53,1.61h-2.88l3.6-9.87h3.16l3.58,9.87h-2.9l-.53-1.61ZM61.12,8.83l-1.06-3.19-1.05,3.19h2.11Z"/>
        <path class="cls-1" d="M78,2.68v9.87h-2.74v-5.44l-1.86,5.44h-2.3l-1.88-5.49v5.49h-2.74V2.68h3.32l2.48,6.41,2.42-6.41h3.3Z"/>
        <path class="cls-1" d="M36.77,20.05h-1.7l-.26.78h-1.4l1.75-4.79h1.54l1.74,4.79h-1.41l-.26-.78ZM36.44,19.03l-.52-1.55-.51,1.55h1.03Z"/>
        <path class="cls-1" d="M40.51,17.16c.2-.37.48-.66.84-.86.36-.21.78-.31,1.25-.31.6,0,1.1.16,1.51.48.41.32.67.75.79,1.3h-1.43c-.09-.18-.21-.32-.36-.41-.15-.1-.33-.14-.53-.14-.31,0-.55.11-.74.33-.18.22-.28.51-.28.88s.09.67.28.89c.18.22.43.33.74.33.2,0,.38-.05.53-.14.15-.1.27-.23.36-.41h1.43c-.12.55-.38.98-.79,1.3-.41.32-.91.48-1.51.48-.47,0-.89-.1-1.25-.31-.36-.21-.64-.49-.84-.86-.2-.37-.3-.79-.3-1.27s.1-.89.3-1.26Z"/>
        <path class="cls-1" d="M50.03,20.05h-1.7l-.26.78h-1.4l1.75-4.79h1.54l1.74,4.79h-1.41l-.26-.78ZM49.7,19.03l-.52-1.55-.51,1.55h1.03Z"/>
        <path class="cls-1" d="M56.84,16.34c.38.2.67.48.87.85.2.36.31.78.31,1.24s-.1.87-.31,1.24c-.21.36-.5.65-.88.85-.38.21-.82.31-1.32.31h-1.9v-4.79h1.9c.5,0,.94.1,1.32.3ZM56.33,19.33c.22-.21.33-.51.33-.9s-.11-.7-.33-.91c-.22-.22-.53-.32-.92-.32h-.46v2.46h.46c.39,0,.7-.11.92-.32Z"/>
        <path class="cls-1" d="M62.25,17.1v.78h1.53v1.01h-1.53v.86h1.73v1.07h-3.07v-4.79h3.07v1.07h-1.73Z"/>
        <path class="cls-1" d="M71.88,16.03v4.79h-1.33v-2.64l-.9,2.64h-1.12l-.91-2.67v2.67h-1.33v-4.79h1.61l1.2,3.11,1.18-3.11h1.6Z"/>
        <path class="cls-1" d="M78.07,16.03l-1.69,3.27v1.52h-1.34v-1.52l-1.69-3.27h1.52l.84,1.85.84-1.85h1.5Z"/>
      </g>
      <g>
        <path class="cls-1" d="M19.25,16.7l-.08.04-1.33.67c-.42-.1-.86-.15-1.29-.15-.82,0-1.63.18-2.38.51-.74-.33-1.56-.51-2.38-.51-.43,0-.87.05-1.29.15l-1.33-.67-.04-.02.48-.24c.67-.33,1.41-.51,2.14-.51s1.43.17,2.08.48l.37.18.37-.18c.65-.32,1.37-.48,2.08-.48s1.47.17,2.14.51l.45.22Z"/>
        <path class="cls-1" d="M19.16,15.54c-.79-.39-1.65-.59-2.51-.59s-1.67.19-2.44.56c-.76-.37-1.6-.56-2.44-.56s-1.72.2-2.51.59l1.71-3.46.25-.13c.06-.03.12-.06.18-.09.06-.03.12-.05.18-.08.06-.02.12-.04.19-.06.06-.02.12-.04.19-.05.25-.06.51-.09.76-.09s.51.03.76.09c.05.01.11.03.16.04.02,0,.03,0,.05.01.05.02.11.04.16.06.06.02.12.05.18.07.06.03.12.06.18.09.47-.25.98-.37,1.49-.37s1.02.12,1.5.37l.25.13,1.71,3.46Z"/>
        <polygon class="cls-1" points="14.21 5.77 0 12.88 0 16.43 2.66 17.77 4.09 14.92 3.55 14.66 14.21 9.33 24.87 14.66 24.34 14.92 25.76 17.77 28.42 16.43 28.42 12.88 14.21 5.77"/>
        <polygon class="cls-1" points="21.5 19.9 14.21 23.54 6.93 19.9 8.32 17.12 8.32 17.12 8.35 17.05 8.4 17.08 14.21 19.99 20.03 17.08 20.07 17.05 20.11 17.12 21.5 19.9"/>
        <polygon class="cls-1" points="9.77 12.44 7.64 16.7 6.22 19.54 4.22 23.54 .67 23.54 3 18.88 3.38 18.12 4.8 15.28 5.03 14.8 9.77 12.44"/>
        <polygon class="cls-1" points="14.21 3.55 15.1 5.33 19.84 7.7 15.99 0 12.44 0 8.59 7.7 13.32 5.33 14.21 3.55"/>
        <polygon class="cls-1" points="27.76 23.54 24.2 23.54 22.21 19.54 20.79 16.7 18.65 12.44 23.39 14.8 23.63 15.28 25.05 18.12 25.43 18.88 27.76 23.54"/>
      </g>
    </g>
  </g>
</svg>