<?xml version="1.0" encoding="UTF-8"?>
<svg id="Layer_2" data-name="Layer 2" xmlns="http://www.w3.org/2000/svg" viewBox="0 0 28.42 23.54">
  <defs>
    <style>
      .cls-1 {
        fill: #fff;
        stroke-width: 0px;
      }
    </style>
  </defs>
  <g id="Layer_1-2" data-name="Layer 1">
    <g id="_532b3984-cabe-455b-8286-cff229691025_5" data-name="532b3984-cabe-455b-8286-cff229691025@5">
      <g>
        <path class="cls-1" d="M19.25,16.7l-.08.04-1.33.67c-.42-.1-.86-.15-1.29-.15-.82,0-1.63.18-2.38.51-.74-.33-1.56-.51-2.38-.51-.43,0-.87.05-1.29.15l-1.33-.67-.04-.02.48-.24c.67-.33,1.41-.51,2.14-.51s1.43.17,2.08.48l.37.18.37-.18c.65-.32,1.37-.48,2.08-.48s1.47.17,2.14.51l.45.22Z"/>
        <path class="cls-1" d="M19.16,15.54c-.79-.39-1.65-.59-2.51-.59s-1.67.19-2.44.56c-.76-.37-1.6-.56-2.44-.56s-1.72.2-2.51.59l1.71-3.46.25-.13c.06-.03.12-.06.18-.09.06-.03.12-.05.18-.08.06-.02.12-.04.19-.06.06-.02.12-.04.19-.05.25-.06.51-.09.76-.09s.51.03.76.09c.05.01.11.03.16.04.02,0,.03,0,.05.01.05.02.11.04.16.06.06.02.12.05.18.07.06.03.12.06.18.09.47-.25.98-.37,1.49-.37s1.02.12,1.5.37l.25.13,1.71,3.46Z"/>
        <polygon class="cls-1" points="14.21 5.77 0 12.88 0 16.43 2.66 17.77 4.09 14.92 3.55 14.66 14.21 9.33 24.87 14.66 24.34 14.92 25.76 17.77 28.42 16.43 28.42 12.88 14.21 5.77"/>
        <polygon class="cls-1" points="21.5 19.9 14.21 23.54 6.93 19.9 8.32 17.12 8.32 17.12 8.35 17.05 8.4 17.08 14.21 19.99 20.03 17.08 20.07 17.05 20.11 17.12 21.5 19.9"/>
        <polygon class="cls-1" points="9.77 12.44 7.64 16.7 6.22 19.54 4.22 23.54 .67 23.54 3 18.88 3.38 18.12 4.8 15.28 5.03 14.8 9.77 12.44"/>
        <polygon class="cls-1" points="14.21 3.55 15.1 5.33 19.84 7.7 15.99 0 12.44 0 8.59 7.7 13.32 5.33 14.21 3.55"/>
        <polygon class="cls-1" points="27.76 23.54 24.2 23.54 22.21 19.54 20.79 16.7 18.65 12.44 23.39 14.8 23.63 15.28 25.05 18.12 25.43 18.88 27.76 23.54"/>
      </g>
    </g>
  </g>
</svg>