<?xml version="1.0" encoding="UTF-8"?>
<svg id="Layer_2" data-name="Layer 2" xmlns="http://www.w3.org/2000/svg" viewBox="0 0 95.06 23.57">
  <defs>
    <style>
      .cls-1 {
        fill: #221f20;
        stroke-width: 0px;
      }
    </style>
  </defs>
  <g id="Layer_1-2" data-name="Layer 1">
    <path class="cls-1" d="M20.1,6.6L13.58.07s-.1-.07-.17-.07h-6.67c-.06,0-.12.03-.16.07L.07,6.58s-.07.1-.07.17v6.77c0,.06.02.12.07.16l9.82,9.82c.09.09.24.09.33,0l9.89-9.89s.07-.1.07-.17v-6.68c0-.07-.03-.13-.07-.17ZM11.27,19.11l-1.05,1.05c-.09.09-.24.09-.33,0l-1.04-1.05c-.15-.15-.04-.4.16-.4h2.1c.21,0,.32.25.17.4ZM17.13,13.24l-3.04,3.04s-.1.07-.17.07h-7.75c-.06,0-.12-.03-.16-.07l-3.01-3c-.09-.09-.09-.24,0-.33l4.58-4.59s.1-.07.17-.07h4.66c.06,0,.12.02.16.07l4.55,4.55c.09.09.09.24,0,.33ZM17.8,9.67c0,.21-.26.32-.4.17l-3.84-3.85s-.1-.07-.16-.07h-6.62c-.07,0-.12.02-.17.07l-3.84,3.85c-.15.15-.4.04-.4-.17v-1.94c0-.07.02-.13.07-.17L7.56,2.43s.1-.07.16-.07h4.71c.06,0,.12.03.16.07l5.13,5.13s.07.1.07.16v1.94Z"/>
    <g>
      <path class="cls-1" d="M78.89,4.62v2.37c-.07-.09-.1-.13-.13-.18-.55-.83-1.28-1.43-2.17-1.85-1.27-.6-2.59-.7-3.96-.47-1.75.3-3.13,1.2-4.11,2.67-.97,1.46-1.25,3.1-1.14,4.83.08,1.1.33,2.13.84,3.09.66,1.26,1.63,2.21,2.93,2.81,1.13.52,2.31.65,3.54.51,1.29-.15,2.4-.67,3.33-1.56.32-.31.58-.67.9-1.03v2.41h2.3V4.62h-2.32ZM77.43,15.2c-.68.67-1.51,1.05-2.46,1.19-2.18.31-4.02-.79-4.83-2.69-.27-.64-.39-1.31-.43-2-.04-.85.05-1.67.37-2.47.62-1.57,1.77-2.52,3.42-2.8,1.48-.25,2.83.14,3.93,1.18.75.72,1.2,1.62,1.35,2.65.06.38.09.76.14,1.14-.04,1.45-.44,2.76-1.49,3.8Z"/>
      <path class="cls-1" d="M41.67,7.9c-.98-2.04-2.65-3.13-4.85-3.45-.81-.11-1.62-.09-2.42.04-1.11.17-2.11.58-2.99,1.28-1.54,1.24-2.24,2.92-2.39,4.84-.07.85-.05,1.71.14,2.57.36,1.64,1.13,3.02,2.51,4.02,1.67,1.22,3.55,1.47,5.54,1.14,1.64-.27,2.95-1.09,3.94-2.42.41-.56.7-1.18.88-1.85-.04-.02-.06-.03-.08-.03-.75,0-1.51,0-2.26,0-.05,0-.14.08-.16.14-.3.68-.72,1.26-1.34,1.67-.9.59-1.89.76-2.95.64-1.42-.15-2.52-.81-3.27-2.04-.4-.65-.56-1.39-.61-2.19h10.91c.02-.36.03-.7.04-1.04.05-1.15-.11-2.27-.62-3.32ZM31.39,10.37c.06-1.96,1.46-3.62,3.36-3.96,1.4-.25,2.71-.02,3.84.91.77.62,1.17,1.46,1.3,2.43.03.2.04.4.07.62h-8.56Z"/>
      <path class="cls-1" d="M93.28,17.63c-.91.57-1.92.8-2.98.83-1.28.03-2.51-.17-3.64-.82-1.24-.71-1.99-1.76-2.18-3.19,0-.04,0-.08,0-.13,0-.02.01-.05.02-.08h2.34c.09.65.39,1.2.91,1.59.52.39,1.11.57,1.75.65.78.1,1.51.01,2.22-.32.84-.39,1.28-1.31,1.02-2.13-.11-.37-.36-.63-.7-.81-.78-.42-1.63-.62-2.47-.87-.9-.27-1.8-.52-2.65-.9-.93-.4-1.67-1.05-1.99-2.07-.52-1.63.04-3.18,1.5-4.12.92-.59,1.94-.85,3.02-.88.8-.02,1.58.02,2.35.27,1.64.53,2.72,1.59,3.06,3.32.04.21.05.44.07.67h-2.25c-.08-.26-.13-.55-.24-.8-.41-.94-1.2-1.35-2.17-1.48-.69-.09-1.36-.05-2.01.21-.53.22-.98.55-1.13,1.13-.21.84-.03,1.45.78,1.91.59.33,1.25.55,1.9.77,1,.35,2.04.6,3.02.99,1.16.47,1.99,1.3,2.18,2.59.22,1.5-.38,2.81-1.74,3.66Z"/>
      <path class="cls-1" d="M63.31,17.48c-.78.55-1.64.83-2.58.93-1.43.15-2.81-.02-4.09-.68-1.15-.6-1.94-1.51-2.25-2.79-.05-.22-.07-.45-.1-.72h.82c.45,0,.91,0,1.36.01.08,0,.2.1.22.17.16.87.7,1.45,1.48,1.78,1.07.45,2.18.48,3.25.02.72-.31,1.18-.86,1.2-1.69.01-.58-.26-1.03-.78-1.3-.83-.45-1.74-.67-2.64-.91-.98-.27-1.98-.52-2.86-1.05-.8-.48-1.44-1.12-1.66-2.07-.34-1.42.02-2.72,1.27-3.7.96-.76,2.09-1.06,3.3-1.1.99-.03,1.96.05,2.87.46,1.54.68,2.44,1.83,2.6,3.53,0,.08.02.17.04.3-.75,0-1.46,0-2.18-.01-.05,0-.14-.1-.15-.15-.13-1.28-1.25-2.06-2.42-2.15-.67-.05-1.3-.03-1.93.21-.79.31-1.26.95-1.22,1.7.03.74.49,1.22,1.11,1.49.77.33,1.58.56,2.37.83.87.31,1.77.55,2.6.93.86.39,1.51,1.05,1.77,2,.43,1.54-.11,3.03-1.41,3.95Z"/>
      <path class="cls-1" d="M52.16,4.34v2.39c-.29,0-.58-.01-.87,0-.72.04-1.41.17-2.03.59-.78.52-1.17,1.29-1.33,2.18-.09.51-.11,1.03-.11,1.54-.01,2.28,0,4.56,0,6.84v.36h-2.28V4.6c.73,0,1.43,0,2.14.01.05,0,.13.14.13.21.01.52,0,1.04,0,1.57v.25c.48-.74,1.08-1.34,1.86-1.74.78-.4,1.61-.52,2.49-.56Z"/>
    </g>
  </g>
</svg>