<?xml version="1.0" encoding="UTF-8"?>
<svg id="Layer_2" data-name="Layer 2" xmlns="http://www.w3.org/2000/svg" viewBox="0 0 20.17 23.57">
  <defs>
    <style>
      .cls-1 {
        fill: #221f20;
        stroke-width: 0px;
      }
    </style>
  </defs>
  <g id="Layer_1-2" data-name="Layer 1">
    <path class="cls-1" d="M20.1,6.6L13.58.07s-.1-.07-.17-.07h-6.67c-.06,0-.12.03-.16.07L.07,6.58s-.07.1-.07.17v6.77c0,.06.02.12.07.16l9.82,9.82c.09.09.24.09.33,0l9.89-9.89s.07-.1.07-.17v-6.68c0-.07-.03-.13-.07-.17ZM11.27,19.11l-1.05,1.05c-.09.09-.24.09-.33,0l-1.04-1.05c-.15-.15-.04-.4.16-.4h2.1c.21,0,.32.25.17.4ZM17.13,13.24l-3.04,3.04s-.1.07-.17.07h-7.75c-.06,0-.12-.03-.16-.07l-3.01-3c-.09-.09-.09-.24,0-.33l4.58-4.59s.1-.07.17-.07h4.66c.06,0,.12.02.16.07l4.55,4.55c.09.09.09.24,0,.33ZM17.8,9.67c0,.21-.26.32-.4.17l-3.84-3.85s-.1-.07-.16-.07h-6.62c-.07,0-.12.02-.17.07l-3.84,3.85c-.15.15-.4.04-.4-.17v-1.94c0-.07.02-.13.07-.17L7.56,2.43s.1-.07.16-.07h4.71c.06,0,.12.03.16.07l5.13,5.13s.07.1.07.16v1.94Z"/>
  </g>
</svg>