<?xml version="1.0" encoding="UTF-8"?>
<svg id="Layer_2" data-name="Layer 2" xmlns="http://www.w3.org/2000/svg" viewBox="0 0 22.15 15.13">
  <defs>
    <style>
      .cls-1 {
fill: #083344;
        stroke-width: 0px;
      }
    </style>
  </defs>
  <g id="Layer_1-2" data-name="Layer 1">
    <g>
      <path class="cls-1" d="M16.45,4.54c-.06.11-.12.23-.17.34-.05.1-.11.19-.17.29-.08.13-.16.26-.24.39-.06.09-.12.18-.18.27-.07.1-.14.2-.22.3-.07.09-.14.19-.21.28,0,.01-.02.03-.03.03-.07.09-.15.18-.22.27-.16.18-.32.36-.49.54,0,0,0,0-.01.01,0,0-.01.02-.02.02-.08.08-.16.16-.24.24-.08.08-.16.15-.24.22-.01.01-.02.02-.03.03-.09.08-.19.17-.28.24-.06.05-.13.11-.19.16-.01,0-.02.02-.03.03,0,0,0,0-.02.01-.03.03-.06.05-.09.07-.08.07-.17.13-.26.19-.1.07-.2.15-.3.21-.1.07-.21.14-.31.2-.11.07-.21.13-.32.19-.1.06-.2.11-.3.17,0,0-.02.01-.03.02-.11.06-.22.12-.33.17-.1.05-.19.1-.29.14-.03.01-.06.03-.08.04-.1.05-.2.09-.31.13-.1.04-.2.08-.3.12-.03.01-.07.03-.1.04-.1.04-.2.07-.31.11-.11.04-.22.07-.33.11-.02,0-.03,0-.05.01-.11.03-.22.06-.33.09,0,0-.01,0-.02,0-.12.03-.24.06-.36.09,0,0-.02,0-.03,0,0,0-.01,0-.02,0-.01,0-.03,0-.04,0,0,0-.01,0-.02,0-.09.02-.18.04-.28.06-.1.02-.2.03-.3.05,0,0-.01,0-.02,0-.04,0-.08.01-.12.02,0,0-.02,0-.03,0-.1.01-.2.03-.3.04,0,0-.02,0-.03,0-.01,0-.03,0-.04,0,0,0-.02,0-.03,0,0,0-.02,0-.03,0-.09.01-.19.02-.29.03-.13.01-.26.02-.39.02h-.04s-.03,0-.05,0c-.11,0-.21,0-.31,0h-.99c.06-.11.11-.22.17-.33.06-.11.12-.22.18-.33.06-.11.13-.21.19-.32.07-.11.14-.21.21-.31.07-.1.14-.2.21-.3,0,0,0,0,0-.01,0-.01.02-.03.03-.04,0,0,0,0,0-.01.05-.07.11-.15.17-.22.02-.02.04-.05.06-.07.06-.08.12-.15.18-.22,0-.01.02-.03.03-.04.08-.09.15-.18.23-.26,0,0,0,0,0,0,.08-.09.17-.18.25-.26.09-.09.17-.18.26-.26.08-.07.15-.14.23-.22.02-.02.05-.04.07-.06,0,0,0,0,.02-.01,0,0,0,0,0,0,0,0,.02-.02.03-.02.05-.05.1-.09.15-.13.01-.01.03-.02.04-.03,0,0,0,0,.02-.01.05-.05.11-.09.17-.14.07-.06.14-.11.21-.17.06-.05.11-.09.17-.13.01,0,.03-.02.04-.03.09-.06.18-.13.27-.19.01,0,.03-.02.04-.03.09-.06.18-.12.28-.18,0,0,.02-.01.03-.02.1-.06.2-.12.3-.18.1-.06.19-.11.29-.17.01,0,.02-.01.03-.02.08-.04.16-.09.24-.12.01,0,.02-.01.03-.02,0,0,0,0,0,0,.03-.02.06-.03.1-.05.2-.1.4-.19.6-.27.03-.01.07-.03.1-.04.1-.04.2-.08.29-.12.07-.03.15-.05.22-.08.02,0,.05-.02.07-.03.06-.02.12-.04.18-.06,0,0,.01,0,.02,0,.04-.01.08-.03.12-.04.06-.02.12-.04.19-.05,0,0,.02,0,.03,0,.08-.02.16-.05.24-.07.01,0,.03,0,.04,0,.08-.02.15-.04.23-.05,0,0,.02,0,.03,0,.04-.01.09-.02.13-.03.08-.02.17-.04.25-.05.01,0,.02,0,.03,0h0c.05,0,.11-.02.16-.03.04,0,.08-.02.12-.02.03,0,.07-.01.1-.02.03,0,.06,0,.09-.01.11-.02.21-.03.32-.04,0,0,.02,0,.03,0,.01,0,.03,0,.04,0,.01,0,.03,0,.04,0,.1-.01.2-.02.31-.03.13,0,.26-.02.39-.02h.04s.03,0,.05,0c.11,0,.21,0,.31,0h.99Z"/>
      <path class="cls-1" d="M22.15,15.13h-2.85v-6.48l-.58.72c-2.96,3.66-7.34,5.76-12.03,5.76h-1.81c.03-.98.19-1.93.48-2.85h1.33c5.03,0,9.57-2.98,11.57-7.6.2-.45.37-.93.51-1.4.31-1.05.49-2.15.52-3.25h2.86"/>
      <path class="cls-1" d="M17.27,0c-.03.97-.19,1.93-.48,2.85h-1.33c-5.03,0-9.57,2.98-11.57,7.6-.2.46-.37.93-.51,1.4-.32,1.06-.49,2.16-.52,3.27H0V0h2.85v6.48l.58-.72C6.39,2.1,10.78,0,15.46,0h1.81Z"/>
    </g>
  </g>
</svg>