<?xml version="1.0" encoding="UTF-8"?>
<svg id="Layer_2" data-name="Layer 2" xmlns="http://www.w3.org/2000/svg" viewBox="0 0 71.07 23.61">
  <defs>
    <style>
      .cls-1 {
fill: #083344;
        stroke-width: 0px;
      }
    </style>
  </defs>
  <g id="Layer_1-2" data-name="Layer 1">
    <g>
      <path class="cls-1" d="M16.47,4.83c-.06.11-.12.23-.17.34-.05.1-.11.19-.17.29-.08.13-.16.26-.24.39-.06.09-.12.18-.18.27-.07.1-.14.2-.22.3-.07.09-.14.19-.21.28,0,.01-.02.03-.03.03-.07.09-.15.18-.22.27-.16.18-.32.36-.49.54,0,0,0,0-.01.01,0,0-.01.02-.02.02-.08.08-.16.16-.24.24-.08.08-.16.15-.24.22-.01.01-.02.02-.03.03-.09.08-.19.17-.28.24-.06.05-.13.11-.19.16-.01,0-.02.02-.03.03,0,0,0,0-.02.01-.03.03-.06.05-.09.07-.08.07-.17.13-.26.19-.1.07-.2.15-.3.21-.1.07-.21.14-.31.2-.11.07-.21.13-.32.19-.1.06-.2.11-.3.17,0,0-.02.01-.03.02-.11.06-.22.12-.33.17-.1.05-.19.1-.29.14-.03.01-.06.03-.08.04-.1.05-.2.09-.31.13-.1.04-.2.08-.3.12-.03.01-.07.03-.1.04-.1.04-.2.07-.31.11-.11.04-.22.07-.33.11-.02,0-.03,0-.05.01-.11.03-.22.06-.33.09,0,0-.01,0-.02,0-.12.03-.24.06-.36.09,0,0-.02,0-.03,0,0,0-.01,0-.02,0-.01,0-.03,0-.04,0,0,0-.01,0-.02,0-.09.02-.18.04-.28.06-.1.02-.2.03-.3.05,0,0-.01,0-.02,0-.04,0-.08.01-.12.02,0,0-.02,0-.03,0-.1.01-.2.03-.3.04,0,0-.02,0-.03,0-.01,0-.03,0-.04,0,0,0-.02,0-.03,0,0,0-.02,0-.03,0-.09.01-.19.02-.29.03-.13.01-.26.02-.39.02h-.04s-.03,0-.05,0c-.11,0-.21,0-.31,0h-.99c.06-.11.11-.22.17-.33.06-.11.12-.22.18-.33.06-.11.13-.21.19-.32.07-.11.14-.21.21-.31.07-.1.14-.2.21-.3,0,0,0,0,0-.01,0-.01.02-.03.03-.04,0,0,0,0,0-.01.05-.07.11-.15.17-.22.02-.02.04-.05.06-.07.06-.08.12-.15.18-.22,0-.01.02-.03.03-.04.08-.09.15-.18.23-.26,0,0,0,0,0,0,.08-.09.17-.18.25-.26.09-.09.17-.18.26-.26.08-.07.15-.14.23-.22.02-.02.05-.04.07-.06,0,0,0,0,.02-.01,0,0,0,0,0,0,0,0,.02-.02.03-.02.05-.05.1-.09.15-.13.01-.01.03-.02.04-.03,0,0,0,0,.02-.01.05-.05.11-.09.17-.14.07-.06.14-.11.21-.17.06-.05.11-.09.17-.13.01,0,.03-.02.04-.03.09-.06.18-.13.27-.19.01,0,.03-.02.04-.03.09-.06.18-.12.28-.18,0,0,.02-.01.03-.02.1-.06.2-.12.3-.18.1-.06.19-.11.29-.17.01,0,.02-.01.03-.02.08-.04.16-.09.24-.12.01,0,.02-.01.03-.02,0,0,0,0,0,0,.03-.02.06-.03.1-.05.2-.1.4-.19.6-.27.03-.01.07-.03.1-.04.1-.04.2-.08.29-.12.07-.03.15-.05.22-.08.02,0,.05-.02.07-.03.06-.02.12-.04.18-.06,0,0,.01,0,.02,0,.04-.01.08-.03.12-.04.06-.02.12-.04.19-.05,0,0,.02,0,.03,0,.08-.02.16-.05.24-.07.01,0,.03,0,.04,0,.08-.02.15-.04.23-.05,0,0,.02,0,.03,0,.04-.01.09-.02.13-.03.08-.02.17-.04.25-.05.01,0,.02,0,.03,0h0c.05,0,.11-.02.16-.03.04,0,.08-.02.12-.02.03,0,.07-.01.1-.02.03,0,.06,0,.09-.01.11-.02.21-.03.32-.04,0,0,.02,0,.03,0,.01,0,.03,0,.04,0,.01,0,.03,0,.04,0,.1-.01.2-.02.31-.03.13,0,.26-.02.39-.02h.04s.03,0,.05,0c.11,0,.21,0,.31,0h.99Z"/>
      <path class="cls-1" d="M22.17,15.42h-2.85v-6.48l-.58.72c-2.96,3.66-7.34,5.76-12.03,5.76h-1.81c.03-.98.19-1.93.48-2.85h1.33c5.03,0,9.57-2.98,11.57-7.6.2-.45.37-.93.51-1.4.31-1.05.49-2.15.52-3.25h2.86"/>
      <path class="cls-1" d="M17.29.29c-.03.97-.19,1.93-.48,2.85h-1.33c-5.03,0-9.57,2.98-11.57,7.6-.2.46-.37.93-.51,1.4-.32,1.06-.49,2.16-.52,3.27H.02V.29h2.85v6.48l.58-.72C6.41,2.39,10.79.29,15.48.29h1.81Z"/>
      <path class="cls-1" d="M27.67,15.19V0h7.4c1.04,0,1.96.2,2.76.6.8.4,1.41.95,1.84,1.66s.65,1.53.65,2.45-.27,1.8-.8,2.55c-.54.75-1.25,1.3-2.15,1.66l3.36,6.27h-3.52l-2.97-5.82h-3.43v5.82h-3.15ZM30.81,6.79h3.99c.71,0,1.28-.19,1.7-.56.43-.38.64-.87.64-1.48s-.21-1.12-.64-1.5c-.43-.38-.99-.56-1.7-.56h-3.99v4.1Z"/>
      <polygon class="cls-1" points="42.2 15.19 42.2 0 53.88 0 53.88 2.73 45.35 2.73 45.35 6.21 50.97 6.21 50.97 8.83 45.35 8.83 45.35 12.45 53.96 12.45 53.96 15.19 42.2 15.19"/>
      <path class="cls-1" d="M55.01,15.19L61.26,0h3.65l6.16,15.19h-3.41l-1.54-3.97h-6.29l-1.54,3.97h-3.28ZM60.81,8.68h4.36l-2.15-5.6-2.21,5.6Z"/>
      <path class="cls-1" d="M0,23.51l1.52-3.68h.81l1.5,3.68h-.75l-.39-1.01h-1.56l-.4,1.01h-.72ZM1.34,21.95h1.14l-.57-1.45-.57,1.45Z"/>
      <path class="cls-1" d="M5.42,23.56c-.27,0-.51-.06-.73-.19-.22-.13-.39-.3-.52-.51-.13-.21-.19-.45-.19-.71s.06-.5.18-.72c.12-.21.29-.38.5-.51.21-.12.44-.19.7-.19s.49.06.69.19c.2.13.36.3.47.52.11.22.17.47.17.74v.17h-2.06c.03.12.09.23.16.33.08.1.17.17.28.23.11.05.24.08.37.08.12,0,.24-.02.35-.06.11-.04.2-.1.28-.17l.43.4c-.17.13-.33.23-.51.29-.17.06-.37.09-.58.09M4.63,21.89h1.42c-.02-.12-.07-.22-.14-.32-.07-.09-.15-.16-.25-.21-.1-.05-.2-.08-.32-.08-.12,0-.23.02-.33.07-.1.05-.18.12-.25.21-.07.09-.11.2-.14.32"/>
      <path class="cls-1" d="M8.22,23.56c-.24,0-.47-.03-.68-.1-.21-.07-.39-.16-.54-.28l.33-.44c.15.11.3.19.45.24.15.05.29.08.44.08.17,0,.31-.03.41-.09.1-.06.16-.14.16-.24,0-.08-.03-.14-.09-.19-.06-.05-.15-.08-.28-.1l-.51-.07c-.27-.04-.47-.12-.61-.26-.14-.13-.21-.31-.21-.53,0-.17.04-.32.13-.45.09-.13.22-.23.39-.29.17-.07.36-.1.58-.1.2,0,.39.03.58.08.19.06.37.14.53.26l-.32.43c-.15-.09-.3-.16-.43-.21-.14-.04-.28-.07-.41-.07s-.25.03-.34.08c-.09.06-.13.13-.13.22s.03.15.09.2c.06.05.16.08.3.1l.51.07c.27.04.48.12.62.26.14.13.21.31.21.52,0,.17-.05.32-.16.45-.1.13-.24.24-.42.32-.18.08-.38.12-.6.12"/>
      <path class="cls-1" d="M11.18,23.55c-.29,0-.51-.07-.66-.2-.15-.13-.22-.32-.22-.58v-1.44h-.56v-.55h.56v-.69l.65-.15v.84h.78v.55h-.78v1.3c0,.13.03.22.09.28.06.05.16.08.3.08.07,0,.14,0,.19-.01.06,0,.12-.02.19-.05v.54c-.07.02-.16.04-.26.06-.1.01-.2.02-.28.02"/>
      <path class="cls-1" d="M12.17,23.51v-3.68l.65-.15v1.35c.21-.2.47-.29.78-.29.21,0,.4.05.56.14.16.09.29.22.38.38.09.16.14.35.14.56v1.69h-.65v-1.59c0-.19-.05-.34-.16-.45s-.26-.17-.44-.17c-.13,0-.24.03-.34.08s-.18.13-.25.22v1.91h-.65Z"/>
      <path class="cls-1" d="M16.62,23.56c-.27,0-.51-.06-.73-.19-.22-.13-.39-.3-.52-.51-.13-.21-.19-.45-.19-.71s.06-.5.18-.72c.12-.21.29-.38.5-.51.21-.12.44-.19.7-.19s.49.06.69.19c.2.13.36.3.47.52.11.22.17.47.17.74v.17h-2.06c.03.12.09.23.16.33.08.1.17.17.28.23.11.05.24.08.37.08.12,0,.24-.02.35-.06.11-.04.2-.1.28-.17l.43.4c-.17.13-.33.23-.51.29-.17.06-.37.09-.58.09M15.84,21.89h1.42c-.02-.12-.07-.22-.14-.32-.07-.09-.15-.16-.25-.21s-.2-.08-.32-.08c-.12,0-.23.02-.33.07s-.18.12-.25.21c-.07.09-.11.2-.14.32"/>
      <path class="cls-1" d="M19.53,23.55c-.29,0-.51-.07-.66-.2-.15-.13-.22-.32-.22-.58v-1.44h-.56v-.55h.56v-.69l.65-.15v.84h.78v.55h-.78v1.3c0,.13.03.22.09.28.06.05.16.08.3.08.07,0,.14,0,.19-.01.06,0,.12-.02.19-.05v.54c-.07.02-.16.04-.26.06-.1.01-.2.02-.28.02"/>
      <path class="cls-1" d="M20.85,20.42c-.1,0-.19-.04-.27-.11-.08-.08-.11-.17-.11-.27s.04-.19.11-.27c.08-.07.16-.11.27-.11.11,0,.2.04.27.11.07.07.11.16.11.27s-.04.2-.11.27c-.07.08-.16.11-.27.11M20.53,20.79h.65v2.72h-.65v-2.72Z"/>
      <path class="cls-1" d="M23.1,23.56c-.26,0-.5-.06-.72-.19-.22-.12-.39-.29-.51-.51-.12-.21-.19-.45-.19-.72s.06-.51.19-.72c.12-.21.29-.38.51-.51.22-.13.46-.19.72-.19.21,0,.42.04.61.12.19.08.36.2.5.35l-.4.43c-.1-.11-.21-.2-.33-.25-.12-.05-.24-.08-.37-.08-.15,0-.28.04-.4.11-.12.07-.21.17-.28.3-.07.13-.1.27-.1.43s.03.3.1.42c.07.13.16.23.28.3.12.07.26.11.41.11.13,0,.24-.03.36-.08.11-.05.22-.13.32-.24l.39.41c-.14.15-.31.27-.49.36-.19.08-.39.12-.6.12"/>
      <path class="cls-1" d="M26.98,23.57c-.26,0-.48-.04-.67-.13-.19-.09-.34-.21-.45-.37-.11-.16-.16-.34-.16-.55,0-.15.02-.28.07-.4.05-.12.12-.22.23-.32.11-.1.25-.2.43-.31-.12-.14-.2-.28-.24-.4-.05-.12-.07-.26-.07-.4,0-.18.04-.33.13-.47.09-.14.2-.25.36-.33.15-.08.32-.12.52-.12s.35.04.5.11c.15.07.26.17.34.3.08.13.13.27.13.44s-.04.31-.13.45c-.09.13-.22.25-.4.36l-.27.17c.11.12.23.24.36.37.13.13.26.25.4.38.07-.12.13-.26.18-.4.05-.15.09-.3.12-.46l.57.09c-.06.23-.12.44-.19.63-.07.19-.16.36-.26.52.09.08.18.16.27.23.09.07.18.14.28.21l-.39.47c-.09-.07-.18-.14-.27-.21-.09-.07-.18-.15-.28-.23-.15.13-.31.22-.5.29-.19.07-.39.1-.6.1M27.02,23.05c.12,0,.24-.02.35-.06.11-.04.21-.1.3-.18-.17-.15-.33-.31-.49-.46-.16-.16-.3-.31-.44-.46-.11.06-.2.12-.26.18-.06.06-.11.12-.14.19-.03.06-.04.14-.04.22,0,.18.06.32.19.42.13.1.31.16.53.16M26.96,21.21l.23-.14c.1-.06.18-.12.22-.19.05-.07.07-.15.07-.24,0-.11-.04-.19-.11-.27-.07-.07-.17-.11-.28-.11s-.21.04-.28.12c-.07.08-.11.18-.11.3,0,.08.02.17.05.25.03.08.1.18.2.29"/>
      <polygon class="cls-1" points="31.36 23.51 30.55 19.82 31.26 19.82 31.78 22.42 32.54 19.82 33.19 19.82 33.95 22.42 34.47 19.82 35.16 19.82 34.35 23.51 33.63 23.51 32.86 20.83 32.08 23.51 31.36 23.51"/>
      <path class="cls-1" d="M36.8,23.56c-.27,0-.51-.06-.73-.19-.22-.13-.39-.3-.52-.51-.13-.21-.19-.45-.19-.71s.06-.5.18-.72c.12-.21.29-.38.5-.51.21-.12.44-.19.7-.19s.49.06.69.19c.2.13.36.3.47.52.11.22.17.47.17.74v.17h-2.06c.03.12.09.23.16.33.08.1.17.17.28.23.11.05.24.08.37.08.12,0,.24-.02.35-.06.11-.04.2-.1.28-.17l.43.4c-.17.13-.33.23-.51.29-.17.06-.37.09-.58.09M36.01,21.89h1.42c-.02-.12-.07-.22-.14-.32-.07-.09-.15-.16-.25-.21-.1-.05-.2-.08-.32-.08-.12,0-.23.02-.33.07-.1.05-.18.12-.25.21-.07.09-.11.2-.14.32"/>
      <polygon class="cls-1" points="38.58 23.51 38.58 19.82 39.23 19.71 39.23 23.51 38.58 23.51"/>
      <polygon class="cls-1" points="39.89 23.51 39.89 19.82 40.54 19.71 40.54 23.51 39.89 23.51"/>
      <path class="cls-1" d="M41.2,23.51v-2.72h.65v.24c.21-.2.47-.29.78-.29.21,0,.4.05.56.14.16.09.29.22.38.38.09.16.14.35.14.56v1.69h-.65v-1.59c0-.19-.05-.34-.16-.45-.11-.11-.26-.17-.44-.17-.13,0-.24.03-.34.08-.1.05-.18.13-.25.22v1.91h-.65Z"/>
      <path class="cls-1" d="M45.65,23.56c-.27,0-.51-.06-.73-.19-.22-.13-.39-.3-.52-.51-.13-.21-.19-.45-.19-.71s.06-.5.18-.72c.12-.21.29-.38.5-.51.21-.12.44-.19.7-.19s.49.06.69.19c.2.13.36.3.47.52.11.22.17.47.17.74v.17h-2.06c.03.12.09.23.16.33.08.1.17.17.28.23.11.05.24.08.37.08.12,0,.24-.02.35-.06.11-.04.2-.1.28-.17l.43.4c-.17.13-.33.23-.51.29-.17.06-.37.09-.58.09M44.86,21.89h1.42c-.02-.12-.07-.22-.14-.32-.07-.09-.15-.16-.25-.21-.1-.05-.2-.08-.32-.08-.12,0-.23.02-.33.07-.1.05-.18.12-.25.21-.07.09-.11.2-.14.32"/>
      <path class="cls-1" d="M48.45,23.56c-.24,0-.47-.03-.68-.1-.21-.07-.39-.16-.55-.28l.33-.44c.15.11.3.19.45.24.15.05.29.08.44.08.17,0,.31-.03.41-.09.1-.06.16-.14.16-.24,0-.08-.03-.14-.09-.19-.06-.05-.15-.08-.28-.1l-.51-.07c-.27-.04-.47-.12-.61-.26-.14-.13-.21-.31-.21-.53,0-.17.04-.32.13-.45.09-.13.22-.23.39-.29s.36-.1.58-.1c.2,0,.39.03.58.08.19.06.37.14.53.26l-.32.43c-.15-.09-.3-.16-.43-.21-.14-.04-.28-.07-.41-.07s-.25.03-.34.08c-.09.06-.13.13-.13.22s.03.15.09.2c.06.05.16.08.3.1l.51.07c.27.04.48.12.62.26.14.13.21.31.21.52,0,.17-.05.32-.16.45-.1.13-.24.24-.42.32-.18.08-.38.12-.6.12"/>
      <path class="cls-1" d="M51.17,23.56c-.24,0-.47-.03-.68-.1-.21-.07-.39-.16-.55-.28l.33-.44c.15.11.3.19.45.24.15.05.29.08.44.08.17,0,.31-.03.41-.09.1-.06.16-.14.16-.24,0-.08-.03-.14-.09-.19-.06-.05-.15-.08-.28-.1l-.51-.07c-.27-.04-.47-.12-.61-.26-.14-.13-.21-.31-.21-.53,0-.17.04-.32.13-.45.09-.13.22-.23.39-.29s.36-.1.58-.1c.2,0,.39.03.58.08.19.06.37.14.53.26l-.32.43c-.15-.09-.3-.16-.43-.21-.14-.04-.28-.07-.41-.07s-.25.03-.34.08c-.09.06-.13.13-.13.22s.03.15.09.2c.06.05.16.08.3.1l.51.07c.27.04.48.12.62.26.14.13.21.31.21.52,0,.17-.05.32-.16.45-.1.13-.24.24-.42.32-.18.08-.38.12-.6.12"/>
      <path class="cls-1" d="M55.85,23.56c-.27,0-.53-.05-.77-.14-.24-.1-.44-.23-.62-.4-.18-.17-.32-.37-.42-.6s-.15-.48-.15-.74.05-.51.15-.74.24-.43.42-.61c.18-.17.39-.31.62-.41.23-.1.49-.14.76-.14.2,0,.39.03.58.08.19.05.36.13.52.23.16.1.3.22.42.36l-.47.46c-.13-.16-.29-.29-.47-.37-.18-.08-.37-.13-.58-.13-.18,0-.34.03-.49.1-.15.07-.28.15-.39.27-.11.11-.2.24-.26.4-.06.15-.09.32-.09.5s.03.34.09.49c.06.15.15.29.26.4.11.11.25.2.4.27.15.06.32.09.51.09.2,0,.39-.04.56-.12.18-.08.33-.2.46-.36l.45.45c-.12.14-.26.26-.42.36-.16.1-.33.18-.52.23-.19.05-.38.08-.57.08"/>
      <path class="cls-1" d="M59.05,23.56c-.27,0-.51-.06-.73-.19-.22-.13-.39-.3-.52-.51-.13-.21-.19-.45-.19-.71s.06-.5.18-.72c.12-.21.29-.38.5-.51.21-.12.44-.19.7-.19s.49.06.69.19c.2.13.36.3.47.52.11.22.17.47.17.74v.17h-2.06c.03.12.09.23.16.33.08.1.17.17.28.23.11.05.24.08.37.08.12,0,.24-.02.35-.06.11-.04.2-.1.28-.17l.43.4c-.17.13-.33.23-.51.29-.17.06-.37.09-.58.09M58.27,21.89h1.42c-.02-.12-.07-.22-.14-.32-.07-.09-.15-.16-.25-.21-.1-.05-.2-.08-.32-.08-.12,0-.23.02-.33.07s-.18.12-.25.21c-.07.09-.11.2-.14.32"/>
      <path class="cls-1" d="M60.84,23.51v-2.72h.65v.24c.21-.2.47-.29.78-.29.21,0,.4.05.56.14.16.09.29.22.38.38.09.16.14.35.14.56v1.69h-.65v-1.59c0-.19-.05-.34-.16-.45-.11-.11-.26-.17-.44-.17-.13,0-.24.03-.34.08s-.18.13-.25.22v1.91h-.65Z"/>
      <path class="cls-1" d="M65.11,23.55c-.29,0-.51-.07-.66-.2-.15-.13-.22-.32-.22-.58v-1.44h-.56v-.55h.56v-.69l.65-.15v.84h.78v.55h-.78v1.3c0,.13.03.22.09.28.06.05.16.08.3.08.07,0,.14,0,.19-.01.06,0,.12-.02.19-.05v.54c-.07.02-.16.04-.26.06-.1.01-.2.02-.28.02"/>
      <path class="cls-1" d="M67.28,23.56c-.27,0-.51-.06-.73-.19-.22-.13-.39-.3-.52-.51-.13-.21-.19-.45-.19-.71s.06-.5.18-.72c.12-.21.29-.38.5-.51.21-.12.44-.19.7-.19s.49.06.69.19c.2.13.36.3.47.52.11.22.17.47.17.74v.17h-2.06c.03.12.09.23.16.33.08.1.17.17.28.23.11.05.24.08.37.08.12,0,.24-.02.35-.06.11-.04.2-.1.28-.17l.43.4c-.17.13-.33.23-.51.29-.17.06-.37.09-.58.09M66.5,21.89h1.42c-.02-.12-.07-.22-.14-.32-.07-.09-.15-.16-.25-.21-.1-.05-.2-.08-.32-.08-.12,0-.23.02-.33.07s-.18.12-.25.21c-.07.09-.11.2-.14.32"/>
      <path class="cls-1" d="M69.05,23.51v-2.72h.66v.32c.09-.13.19-.22.32-.29.12-.07.26-.1.42-.1.13,0,.22.02.29.05v.58s-.1-.04-.17-.05c-.06-.01-.12-.02-.18-.02-.15,0-.28.04-.39.11-.12.08-.21.18-.28.32v1.78h-.66Z"/>
    </g>
  </g>
</svg>