<?xml version="1.0" encoding="UTF-8"?>
<svg id="Layer_1" data-name="Layer 1" xmlns="http://www.w3.org/2000/svg" viewBox="0 0 28.25 23.49">
  <defs>
    <style>
    .cls-1 {
fill: #083344;
        stroke-width: 0px;
      }
    </style>
  </defs>
  <path class="cls-1" d="M28.23,12.38l-1.23,8.02c-.08.55-.44,1.07-.94,1.37l-2.38,1.44c-.3.18-.63.28-3.66.28H0l2.41-3.58c.34-.51.92-.83,1.49-.83h17.59c.72,0,1.4-.59,1.51-1.31l.67-4.35c.11-.72-.38-1.3-1.1-1.31h-2.85s-.44-4.26-.44-4.26c-.06-.18.06-.4.26-.48l1.21-.49c.58-.23,1.19-.24,1.71-.03l.57.24-.39-1.27c-.25-.81-1.1-1.22-1.99-.96l-2.67,1.02c-.49.19-1.01.15-1.41-.1l-.85-.54,3.34-.43c.2-.03.31-.26.19-.4l-.57-.63c-.37-.53-1.02-.79-1.73-.69l-3.13.42c-.38.05-.73.32-.89.68l-3.54,7.91-2.48.03L8.76,0h14.71c.47,0,.91.14,1.26.4l1.48,1.1c.59.44.88,1.18.76,1.98l-.45,2.97c-.12.79-.63,1.54-1.36,1.98l-1.53.93,3.78,1.49c.61.24.94.86.84,1.55Z"/>
  <path class="cls-1" d="M7.46,13.38h14.06c.47,0,.79.38.72.85l-.42,2.72c-.07.47-.51.85-.98.85H3.17l2.88-3.69c.35-.45.88-.72,1.41-.72Z"/>
</svg>