<?xml version="1.0" encoding="UTF-8"?>
<svg id="Layer_1" data-name="Layer 1" xmlns="http://www.w3.org/2000/svg" viewBox="0 0 120.97 23.54">
  <defs>
    <style>
      .cls-1 {
        fill: #fff;
        stroke-width: 0px;
      }
    </style>
  </defs>
  <g>
    <path class="cls-1" d="M28.29,12.41l-1.23,8.04c-.08.55-.44,1.07-.95,1.38l-2.38,1.44c-.3.18-.63.28-3.67.28H0l2.42-3.59c.34-.51.92-.83,1.49-.83h17.63c.72,0,1.4-.59,1.51-1.31l.67-4.36c.11-.72-.38-1.3-1.1-1.31h-2.86s-.44-4.27-.44-4.27c-.06-.18.06-.4.26-.48l1.22-.49c.58-.23,1.19-.24,1.71-.03l.57.24-.39-1.27c-.25-.81-1.1-1.22-2-.97l-2.67,1.02c-.49.19-1.01.15-1.41-.1l-.85-.54,3.35-.44c.2-.03.31-.27.19-.4l-.57-.63c-.37-.53-1.03-.79-1.73-.69l-3.14.43c-.38.05-.73.32-.89.68l-3.55,7.93-2.49.03L8.78,0h14.74c.47,0,.91.14,1.26.4l1.48,1.1c.6.44.88,1.19.76,1.98l-.45,2.97c-.12.8-.63,1.54-1.36,1.98l-1.54.93,3.79,1.49c.61.24.95.86.84,1.55Z"/>
    <path class="cls-1" d="M7.47,13.41h14.09c.47,0,.79.38.72.85l-.42,2.72c-.07.47-.51.85-.98.85H3.17l2.89-3.7c.35-.45.88-.72,1.41-.72Z"/>
  </g>
  <path class="cls-1" d="M46.99,6l-1.82-2.14c-.08-.09-.19-.14-.31-.14h-9.84l-2.61,17.08h9.85c.13,0,.26-.05.36-.14l2.47-2.15c.1-.09.17-.21.19-.34l.66-4.31c.02-.13-.01-.25-.09-.33l-1.07-1.28,1.46-1.28c.1-.09.17-.21.19-.33l.66-4.32c.02-.13-.01-.25-.09-.34ZM41.21,17.05h-4.47l.48-3.17h4.47c.26,0,.44.21.4.48l-.34,2.21c-.04.26-.29.48-.55.48ZM42.19,10.65h-4.47l.48-3.16h4.47c.26,0,.44.21.4.48l-.34,2.21c-.04.26-.29.48-.55.48Z"/>
  <path class="cls-1" d="M58.53,3.72h-7.24c-.13,0-.26.05-.36.14l-2.46,2.14c-.1.09-.17.21-.19.34l-1.81,11.86c-.02.13.01.25.09.34l1.82,2.14c.08.09.19.14.31.14h7.23c.13,0,.25-.05.36-.14l2.47-2.15c.1-.09.17-.21.19-.34l1.81-11.85c.02-.13-.01-.25-.09-.34l-1.82-2.15c-.08-.09-.19-.14-.31-.14ZM54.88,17.05h-4c-.26,0-.44-.21-.4-.48l1.32-8.61c.04-.26.29-.48.55-.48h4c.26,0,.44.21.4.48l-1.32,8.61c-.04.26-.29.48-.55.48Z"/>
  <path class="cls-1" d="M62.83,3.73h2.81c.26,0,.44.21.4.47l-1.89,12.37c-.04.26.14.48.4.48h6.41c.26,0,.44.21.4.48l-.43,2.81c-.04.26-.29.48-.55.48h-10.17c-.26,0-.44-.21-.4-.48l2.46-16.13c.04-.26.29-.48.55-.48Z"/>
  <path class="cls-1" d="M72.14,3.73h10.47c.26,0,.44.21.4.47l-.43,2.81c-.04.26-.29.48-.55.48h-2.88c-.26,0-.51.22-.55.48l-1.89,12.37c-.04.26-.29.48-.55.48h-2.81c-.26,0-.44-.21-.4-.48l1.89-12.37c.04-.26-.14-.48-.4-.48h-2.88c-.26,0-.44-.22-.4-.48l.43-2.8c.04-.26.29-.48.55-.48Z"/>
  <path class="cls-1" d="M84.76,3.73h10.47c.26,0,.44.21.4.47l-.43,2.81c-.04.26-.29.48-.55.48h-2.88c-.26,0-.51.22-.55.48l-1.89,12.37c-.04.26-.29.48-.55.48h-2.81c-.26,0-.44-.21-.4-.48l1.89-12.37c.04-.26-.14-.48-.4-.48h-2.88c-.26,0-.44-.22-.4-.48l.43-2.8c.04-.26.29-.48.55-.48Z"/>
  <path class="cls-1" d="M97.38,3.73h9.64c.26,0,.44.21.4.47l-.43,2.81c-.04.26-.29.48-.55.48h-5.88c-.26,0-.51.21-.55.48l-.3,1.95c-.04.26.14.48.4.48h4.83c.26,0,.44.21.4.48l-.45,2.81c-.04.26-.29.47-.55.47h-4.81c-.26,0-.51.21-.55.48l-.3,1.95c-.04.26.14.48.4.48h5.88c.26,0,.44.21.4.48l-.43,2.81c-.04.26-.29.48-.55.48h-9.64c-.26,0-.44-.21-.4-.48l2.47-16.13c.04-.26.29-.48.55-.48Z"/>
  <path class="cls-1" d="M109.57,3.73h2.81c.26,0,.44.21.4.47l-.94,6.19h4.42l.94-6.18c.04-.26.29-.48.55-.48h2.81c.26,0,.44.21.4.47l-.95,6.24c-.02.13-.09.25-.19.34l-1.71,1.49,1.26,1.5c.07.09.11.21.09.34l-.95,6.24c-.04.26-.29.48-.55.48h-2.81c-.26,0-.44-.21-.4-.48l.95-6.18h-4.42l-.95,6.18c-.04.26-.29.48-.55.48h-2.8c-.26,0-.44-.21-.4-.48l2.47-16.13c.04-.26.29-.48.55-.48Z"/>
</svg>